<svg xmlns="http://www.w3.org/2000/svg" viewBox="0 0 350 204.92927792823193" preserveAspectRatio="xMidYMid meet" class="css-g5ufxp" id="bgabegbb"><defs id="SvgjsDefs1660"><linearGradient id="SvgjsLinearGradient1665"><stop id="SvgjsStop1666" stop-color="#ef4136" offset="0"></stop><stop id="SvgjsStop1667" stop-color="#fbb040" offset="1"></stop></linearGradient></defs><g id="SvgjsG1661" featurekey="symbolFeature-0" transform="matrix(1.711256118063661,0,0,1.711256118063661,89.43826304437758,-15.563874850743678)" fill="#111"><path xmlns="http://www.w3.org/2000/svg" d="M74.554,79.674c-14.975,14.975-39.254,14.975-54.229,0s-14.975-39.254,0-54.229c13.152-13.151,33.48-14.751,48.378-4.801  l-6.052,6.052c-11.501-6.775-26.549-5.225-36.425,4.651c-11.716,11.716-11.716,30.71,0,42.425s30.71,11.716,42.425,0  c9.877-9.877,11.426-24.925,4.651-36.426l6.052-6.052C89.306,46.195,87.706,66.523,74.554,79.674z M67.94,42.712l-5.923,5.923  c1.353,5.042,0.055,10.646-3.901,14.602c-5.896,5.896-15.457,5.896-21.353,0s-5.896-15.457,0-21.353  c3.956-3.956,9.56-5.254,14.602-3.901l5.923-5.923c-8.46-4.065-18.913-2.591-25.926,4.422c-8.88,8.88-8.88,23.276,0,32.156  s23.276,8.88,32.156,0C70.532,61.625,72.004,51.172,67.94,42.712z M83.393,16.607l-0.999-7.512l-9.936,9.935l0.499,3.754  L50.435,45.307c-2.842-1.172-6.233-0.604-8.542,1.705c-3.064,3.064-3.064,8.031,0,11.095c3.064,3.064,8.031,3.064,11.095,0  c2.309-2.309,2.877-5.7,1.705-8.542l22.523-22.523l3.754,0.499l9.935-9.935L83.393,16.607z M63.23,32.427L63.23,32.427L63.23,32.427  L63.23,32.427L63.23,32.427z"></path></g><g id="SvgjsG1662" featurekey="nameFeature-0" transform="matrix(1.5640019893677648,0,0,1.5640019893677648,-6.06832789773275,140.5323936299184)" fill="#111"><path d="M6.84 40.28 c-0.04 0 -0.12 0 -0.16 -0.08 l-0.04 0 c-0.08 0.16 -0.24 0 -0.36 0.04 c-0.2 0.08 -0.4 -0.08 -0.64 0 c0 0 -0.04 -0.04 -0.04 -0.08 s0 -0.08 -0.04 -0.04 c-0.08 0.12 -0.16 0.04 -0.24 0.04 c-0.16 -0.04 -0.28 -0.12 -0.44 -0.12 c-0.08 0 -0.12 -0.04 -0.12 -0.08 c-0.08 -0.12 -0.2 -0.2 -0.32 -0.28 c-0.04 0 -0.04 -0.04 -0.08 -0.04 c0.04 0 0.04 -0.04 0.08 -0.04 c0.08 0 0.16 0.04 0.12 -0.08 c0 -0.08 0 -0.2 -0.16 -0.2 c-0.12 0 -0.24 0 -0.32 -0.04 c-0.04 -0.04 -0.08 -0.04 -0.08 -0.08 s0.04 -0.04 0.08 -0.04 c0.08 -0.04 0.12 -0.04 0.2 -0.04 c0.12 0 0.2 0 0.2 -0.12 c-0.04 -0.16 -0.12 -0.12 -0.2 -0.12 c-0.12 0 -0.24 0.04 -0.36 0.04 l-0.04 -0.04 c0 -0.04 0.04 -0.04 0.04 -0.04 c0.08 0 0.2 -0.04 0.28 -0.04 c0.2 0.04 0.24 -0.08 0.24 -0.28 c0 -0.72 -0.04 -1.44 0 -2.16 c0.04 -0.32 -0.04 -0.68 -0.04 -1 c0 -0.52 0.08 -1.04 0.04 -1.56 c0 -0.28 0.04 -0.56 0.04 -0.84 c0.04 -0.44 0.08 -0.84 0 -1.28 c-0.04 -0.32 -0.04 -0.68 0.08 -1.04 c0.04 -0.16 0 -0.4 0.16 -0.56 l0 0 c-0.28 -0.16 0.04 -0.32 0 -0.52 c-0.04 -0.08 0 -0.28 0 -0.4 c0.04 -0.44 0.12 -0.84 0.16 -1.28 c0 -0.12 0.04 -0.24 0 -0.36 c0 -0.04 -0.04 -0.16 0.08 -0.16 l0 -0.04 c-0.04 -0.32 0.08 -0.6 0.04 -0.92 s0 -0.64 -0.04 -0.96 c-0.08 -0.8 -0.04 -1.64 -0.08 -2.44 c0 -0.28 -0.04 -0.56 -0.04 -0.84 l0 -1.16 c-0.04 -0.44 -0.04 -0.84 -0.04 -1.28 c0 -0.24 0 -0.48 0.08 -0.72 c0 -0.04 0 -0.08 -0.04 -0.12 c-0.08 -0.08 -0.08 -0.16 0 -0.28 l0.04 -0.04 c-0.16 -0.16 0.04 -0.32 0 -0.44 c-0.04 -0.16 0.08 -0.32 -0.04 -0.52 c-0.04 -0.08 0.04 -0.2 0.04 -0.36 c0.04 -0.24 -0.08 -0.52 0.08 -0.76 c0 0 0.04 -0.04 0 -0.04 c-0.12 -0.24 0.08 -0.4 0.08 -0.6 c0 -0.08 0.08 -0.16 -0.04 -0.16 c-0.04 -0.04 -0.04 -0.12 -0.04 -0.16 c0.04 -0.04 0.08 0 0.12 0 c0.04 0.04 0.08 0.08 0.12 0.04 c0 -0.04 -0.04 -0.12 -0.08 -0.16 c-0.04 0 -0.12 0 -0.12 -0.04 c0.04 -0.08 0.12 0 0.16 -0.04 c0.08 -0.04 0.08 -0.12 0.08 -0.2 c0 -0.12 -0.04 -0.24 -0.04 -0.36 c-0.04 -0.16 -0.04 -0.24 -0.2 -0.36 c-0.04 -0.04 -0.04 -0.2 0.04 -0.32 c0.12 -0.16 -0.04 -0.2 -0.16 -0.24 c-0.04 0 -0.08 -0.04 -0.12 -0.04 c-0.04 -0.04 -0.08 -0.08 -0.08 -0.12 s0.04 -0.04 0.08 -0.08 c0.36 0 0.48 -0.28 0.64 -0.48 s0.2 -0.2 0.32 0 c0.04 0.04 0.08 0.04 0.16 0.04 c0.2 -0.04 0.44 -0.04 0.64 -0.16 c0.12 -0.04 0.44 0.04 0.52 0.16 c0.04 0.08 0.08 0.08 0.12 0.04 c0.24 -0.2 0.48 -0.08 0.68 0.08 c0.16 0.08 0.28 0.08 0.44 0.08 c0.28 -0.04 0.56 0 0.84 0.04 c0.16 0.04 0.32 0.08 0.36 -0.12 c0.04 -0.04 0.08 -0.08 0.12 -0.08 c0.04 0.04 0.04 0.08 0.04 0.12 c-0.04 0.16 0.08 0.28 0.16 0.44 c0.08 0.12 0.08 0.24 -0.08 0.36 c-0.08 0.04 -0.08 0.12 -0.04 0.2 c0.04 0.16 0.04 0.32 0.08 0.48 c0.08 0.24 0.08 0.4 0 0.6 c-0.04 0.12 0.04 0.16 0.04 0.28 c0 0.4 0.04 0.8 0.16 1.16 c0.04 0.36 0.08 0.68 0.12 1.04 s0.04 0.68 0.08 1.04 c0.08 0.4 0.04 0.8 0 1.16 s-0.04 0.72 -0.08 1.08 c-0.04 0.68 0.08 1.4 0.08 2.08 c0 0.12 0.04 0.24 0.04 0.36 c0 0.08 0.04 0.12 0.12 0.12 c0.72 0.04 1.44 0.2 2.16 0.28 c0.6 0.04 1.2 0.12 1.8 0.24 c0.56 0.12 1.12 0.08 1.72 0 c0.12 0 0.24 -0.08 0.36 0.08 c0.04 0.04 0.08 -0.04 0.12 -0.08 c0.08 -0.04 0.16 -0.16 0.24 0 c0.04 0.12 0.16 0.08 0.16 0.04 c0.08 -0.04 0 -0.04 -0.04 -0.08 l0 -0.04 c0.04 0 0.08 -0.04 0.08 -0.04 c0.28 0.08 0.52 -0.04 0.76 0.04 c0.08 0 0.12 -0.12 0.24 -0.12 s0.28 -0.08 0.4 0.08 l0.12 0 c0.44 0 0.88 -0.08 1.32 -0.08 c0.2 0 0.44 -0.08 0.64 -0.04 c0.12 0.04 0.2 -0.04 0.2 -0.2 l0 -0.2 l0.04 0 l0 -1.64 c0 -0.32 -0.04 -0.68 -0.08 -1 c0 -0.12 0.04 -0.28 0.16 -0.36 c0.04 -0.04 0.04 -0.08 0.04 -0.16 c-0.04 -0.04 -0.16 -0.16 0.04 -0.16 c0.04 0 0 -0.04 0 -0.08 c-0.16 -0.16 0 -0.36 -0.04 -0.52 c0 0 0.12 0 0.08 -0.08 s-0.08 -0.08 -0.16 -0.08 c-0.04 -0.04 0 -0.04 0 -0.08 c0 -0.28 0 -0.56 0.04 -0.84 c0.04 -0.04 0 -0.08 -0.04 -0.08 c-0.04 -0.04 -0.08 -0.08 -0.04 -0.12 c0.08 -0.16 0.08 -0.36 0.04 -0.48 c-0.04 -0.16 0.08 -0.36 -0.04 -0.48 c-0.04 -0.04 -0.04 -0.08 -0.04 -0.08 c0.2 -0.04 0.08 -0.12 0.04 -0.16 c0 -0.08 -0.04 -0.12 0 -0.16 c0.12 -0.08 0.08 -0.16 0.04 -0.24 c-0.04 -0.2 0 -0.4 0 -0.6 c0 -0.12 0.04 -0.24 0 -0.36 c-0.12 -0.24 -0.08 -0.52 0.04 -0.76 c0.04 -0.12 0.04 -0.28 0 -0.4 c0 -0.12 0 -0.2 0.16 -0.24 c0.12 0 0.08 -0.16 0.08 -0.24 c0 -0.12 -0.04 -0.28 0.16 -0.28 c0.04 0 0.08 -0.08 0.04 -0.16 c0 -0.08 -0.08 -0.08 -0.16 -0.04 c-0.16 0.12 -0.36 0.08 -0.56 0.08 c0 0 -0.04 0 -0.04 -0.04 l0.04 -0.04 c0.2 -0.04 0.36 -0.08 0.52 -0.12 c0.08 0 0.12 -0.04 0.12 -0.08 c0 -0.08 -0.08 -0.08 -0.08 -0.08 c-0.12 -0.08 -0.2 -0.08 -0.32 -0.12 c-0.04 0 -0.12 0 -0.12 -0.08 s0.08 -0.08 0.12 -0.08 c0.12 0 0.24 0.04 0.32 -0.12 l0 0 c0.16 0.2 0.32 -0.08 0.48 0 c0.12 0.04 0.24 0 0.36 0 c0.12 0.04 0.24 -0.04 0.36 0.08 c0.08 0.04 0.28 0 0.44 -0.08 c0.24 -0.16 0.56 -0.12 0.84 -0.12 c0.08 0 0.16 -0.04 0.24 -0.04 c0.32 0.04 0.68 0 1 0.16 c0.16 0.08 0.36 0.08 0.52 0.12 l0.08 0 c0.08 0 0.24 0 0.28 0.08 s-0.08 0.16 -0.12 0.24 c-0.12 0.28 -0.48 0.28 -0.64 0.52 c-0.04 0.08 -0.08 0.12 -0.08 0.2 c0.04 0.12 0.08 0.2 -0.04 0.28 c-0.04 0.04 0.04 0.04 0.04 0.08 c0.08 0.2 0.16 0.4 0.16 0.56 c0.04 0.2 0.04 0.4 0.04 0.6 l0.12 0.72 c0.04 0.56 0.08 1.16 0.04 1.72 c0 0.52 0.04 1 0.04 1.52 c0 0.56 0 1.08 0.04 1.64 c0 0.68 -0.04 1.4 0 2.08 c0.04 0.96 -0.08 1.88 -0.08 2.8 c-0.04 0.28 0.08 0.52 0.04 0.8 c-0.04 0.24 -0.04 0.48 0 0.68 c0 0.32 -0.04 0.64 0 0.92 c0 0.12 0.04 0.24 -0.08 0.32 c-0.04 0 -0.04 0.04 -0.04 0.04 c0.2 0.16 0.04 0.4 0.12 0.56 l0 0.12 c-0.04 0.04 -0.16 -0.08 -0.16 0.04 c0 0.08 0.12 0.04 0.12 0.12 c0 0 0.04 0 0.04 0.04 c-0.04 0.32 0.04 0.68 0 1 c-0.04 0.24 0 0.52 0 0.76 c0 0.56 -0.04 1.12 -0.04 1.68 c0 0.76 -0.04 1.48 0 2.24 c0 0.36 -0.04 0.72 0 1.08 c0.08 0.6 -0.08 1.16 0.08 1.72 c0.04 0.16 -0.08 0.32 -0.08 0.52 c0 0.04 -0.04 0.08 0 0.12 s0.16 0.04 0.12 0.12 s-0.04 0.2 -0.16 0.28 c-0.24 0.12 -0.44 0.24 -0.68 0.36 c-0.08 0.04 -0.16 0.04 -0.2 0.12 c-0.08 0.04 -0.16 0.12 -0.28 0 c-0.04 -0.08 -0.12 -0.04 -0.2 -0.04 c-0.48 0.08 -0.96 0.08 -1.48 0 c-0.28 0 -0.56 -0.16 -0.84 -0.24 c-0.12 -0.04 -0.2 -0.04 -0.32 0 c-0.16 0.08 -0.32 0.08 -0.44 0.12 s-0.2 -0.12 -0.2 -0.2 c0 -0.28 -0.04 -0.56 -0.16 -0.84 l0 -0.04 c0.12 -0.28 0.08 -0.6 0.08 -0.88 c0 -0.24 0.04 -0.48 0 -0.72 c0 -0.12 0.24 -0.16 0.08 -0.28 c-0.08 -0.08 -0.08 -0.24 -0.04 -0.4 c0.08 -0.36 0.08 -0.68 0.12 -1.04 l0 -0.84 c-0.04 -0.32 0.04 -0.64 0.04 -0.96 l0 -0.88 c-0.04 -0.96 -0.08 -1.96 -0.04 -2.96 c0 -0.24 -0.04 -0.48 0 -0.72 c0.04 -0.16 -0.04 -0.24 -0.2 -0.2 c-0.24 0 -0.48 0.16 -0.72 0 l-0.04 0 c-0.28 0.24 -0.6 0.08 -0.92 0.12 c-0.32 0 -0.68 0.04 -1.04 0.04 c-0.28 -0.04 -0.6 0.04 -0.88 -0.16 l-0.08 0 c0.04 0 0.04 0.04 0.04 0.04 c0.04 0.08 0 0.12 -0.04 0.12 s-0.12 0.04 -0.16 0.04 c-0.28 -0.12 -0.56 0.08 -0.88 0.04 c-0.12 0 -0.28 0.04 -0.44 -0.04 c-0.04 -0.04 -0.16 -0.04 -0.2 0 c-0.2 0.12 -0.4 0.04 -0.6 0.04 c-0.24 0 -0.48 0.08 -0.68 0.04 s-0.32 0.04 -0.48 0.08 c-0.08 0.04 -0.16 0 -0.2 -0.04 c-0.12 0 -0.24 -0.12 -0.4 0.04 c-0.04 0.08 -0.12 0.04 -0.08 -0.08 c0 -0.04 0 -0.08 -0.04 -0.08 s-0.04 0.04 -0.04 0.08 c0 0.12 -0.08 0.16 -0.16 0.12 c-0.24 -0.04 -0.48 0.04 -0.72 -0.12 c-0.04 0 -0.04 -0.04 -0.08 0.04 c-0.12 0.2 -0.32 0.08 -0.48 0.08 c-0.04 -0.04 -0.12 -0.04 -0.2 -0.08 c-0.24 -0.04 -0.48 0.04 -0.76 0 c-0.08 0 -0.12 0.08 -0.16 0.12 c-0.04 0.32 -0.12 0.68 -0.08 0.96 c0.04 0.36 0.04 0.68 0.04 1.04 c0.04 0.52 -0.04 1 -0.12 1.48 c-0.08 0.84 -0.16 1.72 -0.12 2.56 c0.04 0.64 0.12 1.28 0.16 1.88 c0.04 0.48 0.04 0.92 -0.04 1.36 l0 0.48 c-0.04 0.36 -0.24 0.64 -0.52 0.84 c-0.04 0.04 -0.12 0.04 -0.12 0.12 c-0.04 0.08 -0.08 0.12 -0.12 0.12 c-0.28 0.04 -0.52 0.2 -0.8 0.16 c-0.2 -0.04 -0.4 0.04 -0.6 0.08 c-0.24 0.04 -0.48 0 -0.72 0.04 z M10.52 27.439999999999998 c0.04 0 0.08 0 0.08 -0.04 l0 0 c-0.12 0 -0.04 -0.08 -0.04 -0.16 c-0.04 -0.08 -0.32 -0.12 -0.4 -0.08 s-0.04 0.12 -0.04 0.16 s0.04 0.08 0.04 0.08 c0.16 -0.08 0.24 0 0.36 0.04 z M21.56 38.16 c0.04 0.04 0.04 0 0.04 -0.04 c0 -0.12 0.04 -0.2 0.04 -0.28 c-0.04 -0.12 -0.04 -0.2 -0.04 -0.28 c0 -0.04 0 -0.08 -0.04 -0.04 c0 0 -0.04 0 -0.04 0.04 c0 0.16 -0.04 0.36 -0.04 0.52 c0 0.04 0 0.08 0.08 0.08 z M11.32 27.4 c0.04 -0.04 0 -0.04 -0.04 -0.08 c-0.04 0 -0.04 -0.04 0 -0.08 c0.12 -0.04 0 -0.04 0 -0.08 c0 -0.2 -0.12 -0.32 -0.24 -0.44 c-0.04 -0.08 -0.04 -0.12 -0.12 -0.12 c-0.12 0 -0.2 0.04 -0.28 0.08 s-0.12 0.04 -0.12 -0.04 c-0.04 -0.2 -0.2 -0.08 -0.32 -0.12 c-0.04 -0.04 -0.08 0.12 -0.08 0.16 c0 0.08 -0.04 0.24 0.16 0.2 l0.08 0.08 s0.08 0.12 0.08 0.12 c0.12 0 0 -0.12 0.04 -0.12 s0.04 -0.04 0.08 0 c0.16 0.04 0.28 0.08 0.44 0.16 c0.04 0 0.08 0 0.04 0.04 c0 0.04 -0.04 0.04 -0.08 0.04 c-0.08 -0.04 -0.12 0 -0.12 0.08 s0.04 0.04 0.12 0.08 c0.08 0 0.2 -0.08 0.28 0.04 c0 0 0.08 0.04 0.08 0 z M11.72 26.92 l0.08 0 c0.12 -0.04 0.12 -0.16 0.24 -0.2 c-0.04 -0.08 -0.04 -0.2 -0.16 -0.24 s-0.28 0.16 -0.36 -0.04 c-0.08 0.04 -0.16 0.04 -0.24 0.04 c-0.12 -0.04 -0.12 0.04 -0.12 0.08 c0 0.12 0.12 0.2 0.24 0.2 c0.08 -0.04 0.12 0 0.12 0.04 c0.04 0.12 0.12 0.12 0.2 0.12 z M10.32 26.240000000000002 c0.12 -0.04 0.2 -0.16 0.28 -0.28 c0 -0.04 0 -0.08 0.04 -0.04 c0.12 0.32 0.44 0.08 0.6 0.2 c0.16 0.04 0.2 0 0.24 -0.08 s0 -0.2 -0.12 -0.2 c-0.08 -0.04 -0.12 -0.08 -0.12 -0.16 c-0.04 -0.16 -0.2 -0.16 -0.32 -0.12 s-0.16 0 -0.28 -0.04 c-0.2 -0.12 -0.36 -0.08 -0.4 0.12 c0 0.04 0 0.08 0.04 0.12 c0.08 0 0.08 -0.04 0.08 -0.08 s0 -0.08 0.04 -0.08 s0.04 0.04 0.08 0.08 c0.04 0.12 -0.08 0.28 -0.2 0.32 c-0.16 0 -0.12 0.08 -0.12 0.16 c0 0.12 0.08 0.12 0.16 0.08 z M12.36 26.8 c0.04 0.04 0.04 0 0.08 -0.08 c-0.08 0 -0.04 -0.12 -0.12 -0.12 s-0.2 0.04 -0.16 0.12 c0 0.12 0.16 -0.04 0.2 0.08 z M11.88 26 c0.08 0.04 0.08 -0.04 0.08 -0.08 c0.08 -0.08 0.08 -0.16 0 -0.24 c-0.04 -0.08 -0.12 -0.04 -0.2 -0.04 c-0.04 0 -0.04 0.08 -0.04 0.12 c0 0 0 0.08 0.04 0.04 c0.2 -0.12 0.08 0.08 0.12 0.08 c0 0.08 -0.04 0.12 0 0.12 z M7.16 14.8 c0.04 -0.04 0.04 -0.04 0.04 -0.08 s-0.04 -0.08 -0.08 -0.08 c-0.16 0 -0.32 0 -0.48 -0.04 c-0.04 0.04 -0.16 0 -0.16 0.04 c0 0.08 0.12 0.04 0.16 0.08 s0.12 0 0.2 0.04 c0.08 0.08 0.2 0.08 0.32 0.04 z M7.08 13.760000000000002 c0 -0.04 0 -0.12 -0.08 -0.12 c-0.12 -0.04 -0.2 -0.08 -0.24 -0.16 c-0.08 -0.08 -0.16 -0.08 -0.28 -0.08 c0 0 -0.08 -0.04 -0.08 0 s0.04 0.08 0.08 0.08 c0.08 0 0.12 -0.04 0.16 0.04 c0.08 0.12 0.2 0.2 0.36 0.2 c0 0 0.08 0.08 0.08 0.04 z M7.8 13.559999999999999 c0.04 0 0.08 0 0.08 -0.08 s-0.08 -0.08 -0.16 -0.12 c-0.04 0 -0.12 0.04 -0.08 0.08 c0 0.12 0.08 0.12 0.16 0.12 z M21.92 21.44 c0.08 0.04 0.12 -0.04 0.2 -0.08 l0.04 0 c0.12 0.08 0.12 0.04 0.12 -0.04 c0.04 -0.12 -0.08 -0.04 -0.12 -0.08 s-0.08 0.08 -0.12 0 c0 -0.04 0.04 -0.08 0.08 -0.08 c0.16 -0.04 0.12 -0.2 0.08 -0.28 c0 -0.16 -0.12 -0.08 -0.16 -0.12 c-0.08 -0.04 -0.12 -0.08 -0.16 0 l0 0.08 c0.04 0.08 0.08 0.04 0.12 0.04 c0.08 -0.04 0.12 -0.04 0.16 0.04 c0 0.08 0 0.12 -0.08 0.16 c-0.04 0 -0.04 0 -0.08 0.04 c0 0 -0.12 0.32 -0.08 0.32 z M22.08 18.56 c0.04 0 0.08 -0.12 0.16 -0.08 c-0.04 -0.04 -0.08 -0.12 -0.16 -0.16 c-0.04 0 -0.04 0.08 -0.08 0.12 c0 0.08 0.04 0.12 0.08 0.12 z M22.24 18.28 c0.04 0 0.04 -0.04 0.04 -0.08 s-0.04 -0.16 -0.16 -0.12 c-0.04 0 -0.12 0 -0.08 0.04 c0.04 0.08 0.12 0.12 0.2 0.16 z M21.96 17.2 c0.16 0.2 0.24 -0.04 0.32 -0.04 c0.04 0 0.12 -0.08 0.08 -0.12 s-0.04 -0.08 -0.08 -0.08 c-0.08 0.04 0 0.08 0 0.12 c-0.08 0.12 -0.2 0.04 -0.28 0.04 c-0.04 0 -0.12 0 -0.12 0.04 s0.04 0.04 0.08 0.04 z M22.08 16.88 c0.12 -0.08 0.24 -0.12 0.4 -0.08 c0.16 0.08 0.2 0 0.16 -0.16 c0 -0.04 -0.04 -0.08 0 -0.12 c0.08 -0.04 0.08 0 0.12 0.04 c0.04 0.08 0.08 0.12 0.16 0.12 c0.08 -0.04 0.12 -0.12 0.12 -0.16 c0 -0.16 0.04 -0.12 0.12 -0.08 l0.08 0.08 s0.04 0.04 0.08 0 c0.04 0 0.08 -0.04 0.08 -0.04 c0 -0.08 -0.08 0 -0.08 -0.04 c-0.12 -0.08 -0.12 -0.2 -0.12 -0.32 c0.04 -0.12 0.12 -0.04 0.16 -0.04 c0.04 0.04 0.08 0.04 0.12 0 c0.04 -0.08 0 -0.12 -0.08 -0.12 c-0.04 -0.04 -0.12 -0.04 -0.16 -0.04 c-0.12 -0.08 -0.12 -0.04 -0.12 0.08 l0 0.12 c0.04 0.12 -0.04 0.16 -0.16 0.08 c-0.12 -0.04 -0.2 0 -0.32 0.08 c0 0 0 0.08 -0.04 0.04 l0 -0.08 c0.08 -0.08 -0.04 -0.12 -0.08 -0.2 c0 -0.04 -0.04 -0.04 -0.04 0 c-0.04 0.04 -0.08 0.08 -0.04 0.12 c0 0.04 0 0.12 -0.04 0.12 s0 -0.08 -0.04 -0.08 c-0.04 -0.04 -0.04 -0.2 -0.08 -0.12 c-0.08 0.08 -0.12 0 -0.12 0 c-0.04 -0.24 -0.28 -0.08 -0.4 -0.16 l-0.08 0.08 c-0.08 0.16 0.04 0.44 0.2 0.52 c0.04 0 0.12 0.04 0.08 0.08 c0 0.04 -0.08 0 -0.12 0 s-0.08 0 -0.08 0.04 l0.04 0.04 c0.24 0 0.08 0.04 0.04 0.12 c-0.04 0.04 -0.04 0.08 0 0.08 c0.08 0.04 0.16 0.12 0.24 0 z M22.04 14.48 c0.08 -0.04 0.16 -0.08 0.24 -0.16 c0.04 0 0.04 -0.04 0.04 -0.04 c0.08 -0.12 -0.04 -0.36 -0.16 -0.36 c-0.08 0 -0.08 0.04 -0.08 0.08 c-0.04 0.08 -0.04 0.16 -0.04 0.24 l0 0.24 z M22.68 14.440000000000001 c0.08 -0.08 0.2 -0.08 0.2 -0.2 c0 -0.04 -0.32 -0.24 -0.36 -0.24 c-0.08 0.04 -0.08 0.08 -0.08 0.12 c0.04 0.16 0.12 0.24 0.24 0.32 z M23.2 14.36 c0.08 0 0.04 -0.08 0.08 -0.16 c-0.04 0 0.04 -0.08 -0.04 -0.08 s-0.12 0.04 -0.12 0.12 s0 0.12 0.08 0.12 z M36.175 40.04 c-0.2 0 -0.4 -0.08 -0.6 0 c-0.04 0 -0.08 0 -0.08 -0.08 c-0.08 -0.28 -0.28 -0.52 -0.24 -0.84 c0 -0.12 -0.08 -0.24 -0.08 -0.36 c0 -0.52 -0.04 -1.04 -0.04 -1.56 c-0.04 -0.76 -0.08 -1.52 -0.04 -2.32 c0 -0.48 0.04 -0.92 0.04 -1.4 c0 -0.88 0.04 -1.8 0 -2.68 c-0.04 -0.68 -0.04 -1.36 0 -2.04 c0.04 -0.88 0.08 -1.72 0.12 -2.6 c0.04 -0.32 0.08 -0.64 0.08 -0.96 c0 -0.44 0.08 -0.88 0.08 -1.36 c0.04 -0.4 0 -0.84 0.04 -1.28 c0.04 -0.4 0.04 -0.84 0.12 -1.24 c0.04 -0.28 0 -0.6 0.04 -0.88 c0.04 -0.56 0.08 -1.08 0.12 -1.64 c0.04 -0.52 0 -1.04 0.04 -1.56 c0 -0.28 0.04 -0.56 0.04 -0.8 c-0.04 -0.12 -0.04 -0.28 -0.04 -0.4 c-0.04 -0.04 0 -0.12 0.04 -0.16 c0.16 -0.08 0.04 -0.2 0.08 -0.32 c0 -0.12 -0.2 -0.28 0 -0.4 c-0.04 -0.2 0.12 -0.32 0.12 -0.48 l0 -0.04 c-0.24 -0.04 -0.08 -0.24 -0.12 -0.36 c0 -0.08 -0.04 -0.16 -0.04 -0.24 c-0.04 -0.16 0 -0.36 0.08 -0.48 c0.08 -0.16 0.04 -0.36 0.16 -0.48 c0.04 -0.04 -0.04 -0.12 -0.12 -0.08 s-0.16 0.08 -0.24 0.08 c0.08 -0.04 0.12 -0.12 0.2 -0.12 c0.16 -0.12 0.32 -0.2 0.32 -0.4 c0 -0.08 0.04 -0.12 0.08 -0.08 c0.08 0.04 0.16 -0.12 0.2 0.04 c0.04 0.04 0.12 0.12 0.08 0.16 c0 0.24 0.12 0.16 0.24 0.12 c0.2 -0.08 0.44 -0.08 0.68 -0.04 c0.2 0.04 0.4 0.08 0.56 0.12 c0.12 0 0.36 -0.2 0.36 -0.28 c0.04 -0.16 0.12 -0.16 0.2 -0.08 c0.16 0.28 0.4 0.16 0.56 0.08 c0.2 -0.04 0.4 -0.04 0.56 0 c0.2 0.04 0.36 -0.08 0.52 0.04 c0.16 0.08 0.32 0.28 0.32 0.44 c-0.04 0.4 -0.08 0.44 -0.44 0.52 c-0.16 0.04 -0.28 0.04 -0.24 0.28 c0.08 0.96 0.08 1.92 0.08 2.88 c0 0.68 -0.04 1.4 -0.08 2.12 c-0.04 0.44 0 0.84 0.04 1.28 c0.08 0.36 0.08 0.72 0.08 1.08 c0.04 0.6 0.04 1.24 0.08 1.84 c0 0.76 0 1.56 -0.04 2.36 c-0.04 0.64 -0.12 1.32 -0.16 1.96 c0 0.6 -0.08 1.16 -0.08 1.76 c-0.04 0.36 0 0.76 0 1.12 c0 0.48 0 0.96 -0.04 1.4 c-0.04 0.92 -0.08 1.8 -0.04 2.72 c0.04 0.64 0.04 1.28 0 1.96 c-0.04 0.48 -0.08 0.96 -0.16 1.44 c-0.04 0.32 0 0.68 0 1 c-0.04 0.16 0.16 0.28 0.24 0.4 c0 0.04 0.12 0.04 0.16 0 c0.08 -0.04 0.16 -0.04 0.2 0 c0.16 0.04 0.12 0.08 0.04 0.2 c-0.12 0.16 -0.36 0.24 -0.56 0.28 c-0.4 0.16 -0.88 0.28 -1.28 0.24 c-0.32 -0.04 -0.56 0.16 -0.84 0.04 c-0.48 0.24 -0.96 0.08 -1.4 0.08 z M65.87 40.52 c-0.08 -0.08 -0.12 -0.16 -0.2 -0.24 c-0.04 -0.04 -0.12 -0.08 -0.16 0.04 s-0.12 0.08 -0.2 0 c-0.24 -0.2 -0.32 -0.48 -0.44 -0.76 c-0.08 -0.2 -0.16 -0.36 -0.32 -0.48 c-0.08 -0.04 -0.08 -0.08 -0.08 -0.12 c0.04 -0.16 -0.04 -0.32 0 -0.44 c0.04 -0.28 -0.16 -0.4 -0.2 -0.64 c-0.04 -0.2 -0.2 -0.36 -0.28 -0.56 c-0.12 -0.32 -0.28 -0.64 -0.4 -0.96 c-0.24 -0.56 -0.48 -1.08 -0.72 -1.6 c-0.12 -0.32 -0.32 -0.6 -0.4 -0.96 c0 -0.12 -0.12 -0.24 -0.12 -0.36 c0 -0.04 -0.12 -0.12 0 -0.16 c0.04 0 0.04 -0.04 0 -0.08 l-0.12 -0.36 c0 -0.04 0 -0.16 -0.12 -0.08 c0 0.04 -0.04 -0.04 -0.04 -0.04 c-0.04 -0.12 0 -0.28 -0.16 -0.32 c-0.04 -0.04 0.04 -0.16 0.08 -0.24 c0.08 -0.04 0.12 -0.04 0.08 -0.12 c-0.04 0 0 -0.04 0 -0.08 s0.12 -0.04 0.04 -0.12 c-0.04 -0.08 -0.08 0 -0.16 0.04 c-0.04 0 -0.04 -0.04 -0.04 -0.08 c-0.08 -0.16 -0.12 -0.32 -0.08 -0.52 c0.04 -0.08 0 -0.08 -0.04 -0.12 c-0.16 -0.04 -0.28 -0.12 -0.2 -0.28 c0 -0.12 -0.2 -0.36 -0.36 -0.4 c-0.24 -0.04 -0.52 -0.04 -0.8 0 c-0.2 0.08 -0.44 0.04 -0.64 0.08 l-0.12 0 c-0.48 0.12 -0.96 0.12 -1.44 0.2 c-0.2 0.04 -0.4 0.12 -0.6 0.16 c-0.32 0.04 -0.68 0.04 -1 0.04 c-0.28 0.04 -0.56 -0.08 -0.88 -0.04 c-0.2 0.04 -0.4 -0.12 -0.6 -0.04 c-0.12 0 -0.16 0.04 -0.16 0.16 s0 0.24 -0.12 0.32 l0 0.04 c0.08 0.16 0 0.32 0 0.48 c0 0.08 0.04 0.16 0.04 0.24 c-0.04 0.24 -0.08 0.52 -0.04 0.8 c0.04 0.56 -0.08 1.16 -0.04 1.72 c0.04 0.64 0.08 1.24 0.16 1.84 c0.12 0.72 0.24 1.4 0.08 2.12 c-0.08 0.2 -0.04 0.24 0.24 0.24 c0.08 0 0.24 0 0.24 0.08 c0.04 0.08 -0.12 0.12 -0.16 0.16 c-0.16 0.16 -0.36 0.24 -0.56 0.28 c-0.04 0.04 -0.08 0.04 -0.12 0.08 c-0.08 0.24 -0.36 0.2 -0.48 0.36 c-0.04 0 -0.08 0.04 -0.08 0 c-0.24 -0.16 -0.52 -0.08 -0.8 -0.16 c-0.08 0 -0.2 -0.04 -0.2 0.12 c0 0.08 -0.04 0.08 -0.08 0.08 c-0.16 0.12 -0.36 0 -0.52 0.04 l-0.04 -0.04 c0.04 -0.24 -0.16 -0.08 -0.24 -0.08 c-0.08 -0.04 -0.16 -0.04 -0.2 -0.16 s-0.2 -0.12 -0.28 -0.12 c-0.04 -0.04 -0.08 0 -0.08 -0.08 l0.08 0 l0.12 0 s0.04 0 0.04 -0.04 c0.04 0 0 -0.04 0 -0.04 c-0.12 -0.04 -0.2 -0.08 -0.32 -0.12 c-0.08 0 -0.12 0 -0.12 0.08 c0 0.12 -0.08 0.2 -0.16 0.24 l-0.48 0.24 c-0.08 0.08 -0.16 0 -0.2 -0.08 c-0.2 -0.36 -0.32 -0.68 -0.4 -1.08 c-0.12 -0.56 -0.08 -1.12 -0.12 -1.68 c-0.08 -0.56 -0.04 -1.16 -0.04 -1.72 c0.04 -0.36 0.04 -0.72 0.04 -1.04 c-0.04 -0.48 0 -0.92 0 -1.4 c0 -0.44 0.08 -0.84 0.12 -1.28 c0 -0.24 0.04 -0.52 0.04 -0.8 c0.04 -0.28 0.08 -0.56 0.12 -0.8 c0.04 -0.2 0.04 -0.4 0.08 -0.6 c0.04 -0.24 -0.04 -0.52 0.04 -0.8 c0.12 -0.56 -0.04 -1.12 0.04 -1.68 c0.12 -0.48 0.08 -0.96 0.04 -1.44 c-0.04 -0.2 0.04 -0.36 0.08 -0.52 c0.08 -0.4 0.04 -0.84 0.04 -1.24 l0 -1.16 c-0.04 -0.4 0.04 -0.76 0.04 -1.16 c0 -0.2 -0.08 -0.4 -0.08 -0.6 c0.04 -0.32 0.04 -0.6 0.12 -0.92 c0.04 -0.08 0.04 -0.12 0 -0.2 c-0.04 -0.04 -0.04 -0.08 -0.04 -0.12 c0.2 -0.16 0 -0.4 0.04 -0.6 s0.04 -0.48 0.04 -0.68 c0 -0.24 -0.12 -0.48 0.04 -0.72 c0.04 -0.08 0 -0.28 -0.08 -0.44 c0 -0.04 -0.04 -0.12 0.04 -0.12 c0.2 0.04 0.04 -0.08 0.04 -0.12 c-0.08 -0.16 0 -0.28 0.04 -0.4 c0 -0.08 0 -0.16 0.08 -0.2 c0 -0.04 0.04 -0.08 0 -0.08 c-0.16 -0.08 -0.16 -0.16 -0.08 -0.28 c0 -0.04 0 -0.12 -0.04 -0.12 c-0.28 -0.12 -0.12 -0.32 -0.08 -0.48 c0.12 -0.16 0.12 -0.32 0.16 -0.48 c0 -0.12 0 -0.2 0.04 -0.28 c0.04 -0.16 0.12 -0.32 -0.16 -0.28 c-0.04 0 -0.04 0 -0.04 -0.04 s0 -0.04 0.04 -0.08 c0 0 0.04 -0.04 0.08 -0.04 c0.28 0 0.36 -0.24 0.44 -0.48 c0 -0.04 -0.04 -0.08 0.04 -0.08 c0.04 -0.04 0.04 0.04 0.04 0.08 c0.04 0.04 0.04 0.12 0.08 0.12 c0.08 0 0.08 -0.08 0.08 -0.08 c0.04 -0.08 0.08 -0.2 0.16 -0.2 c0.04 0 0.08 0.12 0.12 0.16 c0.04 0.08 0.04 0.16 0.16 0.12 c0.08 0 0.04 -0.08 0.04 -0.12 s0.04 -0.08 0.08 -0.08 c0.6 0.04 1.2 -0.08 1.8 -0.08 c0.12 -0.04 0.24 0 0.28 -0.16 l0.04 0 c0.44 -0.08 0.8 -0.36 1.28 -0.24 c0.12 0.04 0.28 -0.08 0.36 0.12 c0 0 0.12 0 0.16 -0.04 c0.36 -0.08 0.68 -0.04 1.04 -0.04 c0.32 0 0.64 -0.04 0.96 0 c0.2 0 0.48 -0.04 0.68 0.08 l0.04 0.04 c0.24 -0.08 0.52 0 0.76 0 c0.32 -0.04 0.6 -0.08 0.88 -0.04 s0.52 0 0.76 0.08 c0.08 0.04 0.2 0 0.28 -0.04 c0.24 0 0.44 0.04 0.64 0.12 c0.4 0.08 0.8 0.16 1.2 0.28 s0.72 0.32 1.04 0.52 c0.16 0.08 0.32 0.12 0.48 0.2 c0.52 0.2 1 0.48 1.4 0.88 c0.32 0.28 0.56 0.56 0.84 0.84 c0.12 0.12 0.16 0.24 0.24 0.32 c0.08 0.2 0.24 0.28 0.4 0.4 c0.2 0.12 0.36 0.28 0.48 0.48 c0.44 0.6 0.76 1.28 1 2 c0.16 0.52 0.28 1.04 0.32 1.56 c0.04 0.44 0.08 0.92 0.08 1.44 c0.04 0.6 -0.08 1.24 -0.24 1.92 c-0.24 1 -0.68 1.92 -1.16 2.84 c-0.32 0.52 -0.76 1 -1.28 1.36 c-0.32 0.28 -0.68 0.52 -1.08 0.72 c-0.04 0.04 -0.12 0.08 -0.16 0.16 c-0.12 0.12 -0.32 0.16 -0.48 0.28 c-0.04 0.04 -0.12 0 -0.08 0.08 c0 0.08 0.04 0.04 0.08 0.04 c0.12 0 0.12 0.04 0.08 0.12 c-0.08 0.16 0 0.28 0.12 0.4 c0.12 0.04 0.12 0.2 0.24 0.24 l0.04 0.04 c-0.04 0.04 -0.08 0 -0.08 0 c-0.04 -0.04 -0.04 -0.08 -0.08 -0.04 l0 0.04 c0.04 0.12 0.08 0.2 0.24 0.2 c0.12 0 0.24 0.12 0.32 0.2 c0.04 0.04 0.12 0.08 0.12 0.08 c0.24 -0.16 0.2 0.04 0.24 0.16 c0.04 0.08 0.04 0.2 0.2 0.24 l0 0.04 c0 0.2 0.2 0.32 0.24 0.52 c0.04 0.12 0.24 0.24 0.08 0.4 l0 0 c0.44 0.24 0.36 0.68 0.52 1.04 c0.2 0.4 0.32 0.88 0.48 1.32 c0.16 0.48 0.28 0.92 0.48 1.4 c0.2 0.44 0.32 0.92 0.48 1.36 c0.12 0.36 0.32 0.68 0.44 1.04 c0.08 0.28 0.16 0.6 0.28 0.88 c0.04 0.16 0.12 0.24 0.32 0.24 c0.16 0 0.24 0.16 0.36 0.24 c0.08 0.04 0.12 0.08 0.16 0.12 s0.04 0.08 0.04 0.08 c0 0.04 -0.04 0 -0.08 0 c-0.08 0.04 -0.2 0 -0.24 0.08 c-0.04 0.12 0.08 0.16 0.16 0.24 c0.08 0 0.12 0.08 0.12 0.16 c-0.04 0.08 -0.16 0.08 -0.2 0.04 c-0.16 -0.04 -0.36 0.08 -0.44 -0.16 c-0.04 -0.04 -0.08 0 -0.08 0 c-0.12 0.08 -0.28 0.12 -0.4 0.16 c-0.28 0 -0.52 0 -0.8 -0.04 c-0.2 -0.04 -0.44 -0.08 -0.64 -0.16 c-0.24 -0.12 -0.52 -0.08 -0.76 -0.04 c-0.2 0.04 -0.44 0.08 -0.64 -0.08 l-0.04 0 c-0.04 0.2 -0.2 0.12 -0.32 0.16 c-0.04 0 -0.04 0.08 -0.04 0.12 c-0.04 0.2 -0.12 0.24 -0.28 0.12 z M51.75 38.56 c0.08 0 0.04 -0.08 0.08 -0.16 c-0.04 -0.16 -0.12 -0.36 -0.16 -0.56 c0 -0.04 0 -0.08 -0.04 -0.08 s0 0.04 0 0.08 c0 0.2 0 0.4 0.04 0.6 c0 0.08 0 0.12 0.08 0.12 z M53.19 28.2 c0 0 0.04 -0.04 0.12 -0.08 c-0.12 0 -0.16 -0.12 -0.24 -0.16 c-0.04 0 -0.04 0.04 -0.04 0.08 c0 0.08 0.08 0.12 0.16 0.16 z M53.67 28 c0.12 0 0.08 -0.12 0.12 -0.16 c0 -0.04 0.04 -0.12 -0.04 -0.12 c-0.08 0.04 -0.12 0.12 -0.16 0.2 c0 0.04 0.04 0.08 0.08 0.08 z M53.31 26.759999999999998 c0.04 0.04 0.04 0.04 0.04 0 c0 -0.08 0.08 -0.12 0.12 -0.2 c0 -0.04 -0.04 -0.12 -0.08 -0.12 c-0.08 -0.04 -0.04 0.04 -0.08 0.08 l0 0.16 c-0.04 0.04 -0.04 0.08 0 0.08 z M53.87 21.72 c0.24 0 0 -0.12 0.04 -0.16 s0.04 -0.08 -0.04 -0.08 s-0.08 0.08 -0.08 0.16 c0 0.04 0 0.08 0.08 0.08 z M64.43 31.96 c0.04 0.08 0.08 0.04 0.08 -0.04 c0.04 -0.04 0.04 -0.08 0.04 -0.16 c0 -0.04 0.04 -0.08 0.04 0 c0.08 0.12 0.08 0.12 0.16 0 s0.08 -0.2 0 -0.28 c-0.12 -0.04 -0.12 -0.12 -0.04 -0.2 c0 -0.04 0.08 -0.08 0.04 -0.16 c-0.08 -0.08 -0.08 0.04 -0.12 0.08 c-0.04 0 -0.08 0.04 -0.12 0 s0.04 -0.08 0.04 -0.08 c0.08 -0.04 0.08 -0.12 0.08 -0.16 l-0.36 -0.84 c0 0 0 -0.08 -0.04 -0.08 s-0.04 0.08 -0.04 0.08 c0 0.08 0 0.08 -0.04 0.04 c-0.08 -0.08 -0.08 -0.04 -0.08 0.04 c-0.04 0.08 -0.12 0.12 -0.2 0.12 c-0.04 0 -0.12 -0.04 -0.16 0 c0 -0.08 -0.08 -0.2 -0.12 -0.2 c-0.08 0 0 0.12 0 0.16 l-0.04 0.04 c-0.04 0.04 -0.04 0 -0.04 -0.04 c0 -0.08 -0.04 -0.12 -0.12 -0.12 c-0.04 0 -0.08 0.04 -0.08 0.08 c0.12 0.12 0.08 0.24 0.08 0.36 c-0.04 0.04 0.08 0.08 0.12 0.08 l0 0.12 c0.04 0.12 -0.04 0.16 -0.12 0.2 c-0.16 0.08 -0.16 0.08 0 0.24 c0.04 0 0.04 0.04 0.04 0.08 c0 0.08 0.04 0.12 0.08 0.08 c0.08 0 0.08 -0.04 0.04 -0.12 s0.04 -0.08 0.08 -0.08 c0.08 0.08 0.2 0.12 0.12 0.24 c-0.08 0.08 0 0.08 0 0.08 c0.24 -0.08 0.24 0 0.12 0.16 c-0.04 0.04 -0.04 0.08 0 0.12 c0.08 0.08 0.04 -0.04 0.12 -0.04 c0.04 0 0.12 -0.08 0.16 0.04 s0.08 0.12 0.2 0.12 c0.04 0 0.04 0 0.08 0.04 z M53.67 20.92 c0.08 -0.08 0.2 -0.04 0.24 -0.16 c0 -0.08 -0.08 -0.08 -0.16 -0.12 c-0.16 -0.04 -0.04 0.12 -0.08 0.16 s0 0.12 0 0.12 z M53.55 19.24 c0.04 0 0.04 -0.08 0.08 -0.16 c-0.04 -0.12 -0.16 -0.2 -0.28 -0.28 l-0.04 -0.04 c-0.04 0.04 0 0.08 0 0.08 c0.16 0.08 0.16 0.12 0 0.2 l-0.04 0.04 c-0.04 0.04 -0.04 0.08 -0.04 0.08 c0.08 0.04 0.04 -0.04 0.08 -0.04 c0.04 -0.04 0.08 -0.08 0.12 -0.08 s0.08 0.04 0.08 0.08 c0.04 0.04 -0.04 0.12 0.04 0.12 z M54.07 20.64 c0 0 0.08 -0.04 0.12 -0.12 s0 -0.2 -0.04 -0.28 c0.2 -0.08 0.16 -0.2 0.08 -0.36 c-0.04 -0.04 -0.04 -0.12 -0.04 -0.16 s0 -0.04 0.04 -0.04 c0.08 0.12 0.04 0 0.08 -0.04 c0.08 -0.04 0 -0.12 0.04 -0.2 c0.08 -0.24 0.12 -0.48 0.2 -0.72 c0 -0.08 0.04 -0.16 -0.04 -0.2 c-0.08 0 -0.2 -0.04 -0.24 0.04 c-0.04 0.04 -0.12 0.16 -0.08 0.24 c0.12 0.08 0 0.16 -0.04 0.24 s-0.12 0 -0.16 -0.04 c-0.04 0 -0.08 -0.04 -0.12 -0.04 s-0.08 -0.04 -0.08 0 c-0.04 0.04 0 0.08 0.04 0.08 c0 0.04 0.12 0 0.08 0.12 s-0.08 -0.04 -0.12 0 c-0.08 0 -0.16 0 -0.12 0.08 c0 0.12 0.04 0 0.08 0 c0.08 0 0.08 0.04 0.12 0.08 c-0.24 0.04 0.04 0.16 -0.04 0.2 c0 0.04 0.04 0.08 0.12 0.08 c0.04 0 0.08 -0.08 0.04 -0.12 c0 -0.04 -0.04 -0.12 -0.08 -0.16 c0.08 0.04 0.12 0.04 0.2 0 c0.04 -0.04 0.08 0 0.04 0.04 c-0.08 0.12 -0.04 0.28 -0.24 0.36 c-0.08 0.04 -0.2 0.04 -0.32 0.08 c-0.04 0.04 -0.08 0.04 -0.08 0.08 s0.04 0.04 0.08 0.04 c0.12 0.08 0.12 0.08 0.04 0.12 c0 0.04 -0.04 0.08 0 0.08 c0 0.04 0.08 0.08 0.08 0.04 c0.2 -0.16 0.12 0.04 0.16 0.12 c0.04 0.04 -0.04 0.08 0 0.12 s0.04 0.08 0.08 0.12 c0.04 0 0.04 -0.08 0.04 -0.12 s0 -0.08 0.08 -0.08 c-0.04 0.04 0 0.12 0 0.2 c0 0.04 -0.08 0.08 0 0.12 z M60.989999999999995 26.48 c0.04 0 0.08 0 0.08 -0.08 c-0.12 0.08 -0.04 -0.12 -0.16 -0.12 c-0.04 0 -0.08 0.04 -0.08 0.08 c0 0.08 0.04 0.16 0.16 0.12 z M66.19 31.08 c0.04 0 0.12 0.04 0.12 -0.04 c0.04 -0.08 -0.08 -0.04 -0.12 -0.08 c-0.08 -0.08 -0.2 0.04 -0.24 -0.08 c0 0 -0.04 0 -0.08 0.04 c-0.04 0 0 0.04 0.04 0.08 c0.08 0.04 0.16 0.08 0.28 0.08 z M65.63 30 c-0.08 -0.04 -0.2 -0.04 -0.24 -0.16 c0 -0.04 0.12 -0.04 0.16 -0.04 c0.12 0 0.08 0.12 0.16 0.16 c0 0.04 -0.04 0.08 -0.08 0.04 z M65.99 30.28 c-0.08 0.04 -0.08 0 -0.12 -0.08 l-0.04 0 c-0.04 -0.04 -0.12 0.08 -0.12 -0.04 c0 -0.04 0.12 -0.08 0.2 -0.12 c0.04 0 0.08 0.08 0.08 0.12 c0.04 0.04 0.04 0.08 0 0.12 z M62.269999999999996 25.72 c0.08 0.04 0.12 0 0.16 -0.04 c0.04 -0.08 0.08 -0.08 0.12 0 l0 0 c0.12 -0.08 0.2 -0.2 0.24 -0.36 c0 -0.04 0.04 -0.08 -0.04 -0.04 c-0.16 0.08 -0.36 0.12 -0.48 0.28 c0 0.04 -0.04 0.12 0 0.16 z M52.629999999999995 15.48 c-0.08 -0.04 -0.2 -0.04 -0.24 -0.2 c0 -0.04 0 -0.08 -0.04 -0.08 c-0.24 0 -0.04 -0.12 -0.04 -0.12 c0.04 -0.12 0.08 -0.16 0.08 0 c0 0.04 0.08 0.04 0.08 0.04 c0.04 0.04 0.32 0 0.08 0.16 c-0.08 0.04 0 0.04 0.04 0.08 c0.04 0 0.08 0.08 0.2 0.08 c-0.12 0.04 -0.12 0.04 -0.16 0.04 z M53.15 16.36 c0.08 0 0.08 -0.08 0.12 -0.16 c0.04 0 0 -0.04 -0.04 -0.08 c-0.16 -0.16 -0.12 -0.28 0.08 -0.36 c0.04 0 0.12 0 0.08 -0.08 c-0.08 -0.08 0 -0.12 0.04 -0.16 c0.08 -0.04 0.04 -0.12 0 -0.2 s-0.08 -0.12 -0.12 -0.2 c-0.04 -0.12 0 -0.28 0.04 -0.32 c0.16 -0.12 0.08 -0.16 0 -0.24 c-0.08 -0.04 -0.16 -0.04 -0.24 -0.08 c-0.28 -0.08 -0.52 -0.04 -0.8 0.04 c-0.04 0 -0.24 -0.08 -0.16 0.12 c0.04 0.04 0 0 -0.04 0.04 c-0.12 0.04 -0.08 0.16 -0.12 0.24 s0.04 0.04 0.12 0.08 c0.04 0 0.04 0.04 0 0.08 c0 0.04 -0.04 0.12 0 0.16 l-0.12 0 c-0.12 0.08 0.04 0.16 0 0.24 c-0.04 0.04 0 0.08 0.04 0.08 c0.08 -0.08 0.24 -0.12 0.16 -0.28 c0.04 0 0.16 0 0.12 0.08 c-0.16 0.2 0.12 0.2 0.12 0.32 c0.04 0.04 0.04 -0.08 0.08 -0.08 c0.08 -0.04 0.08 0 0.08 0.04 c0.04 0.04 0.08 0.08 0.12 0.08 c0.08 0 0.04 -0.08 0.04 -0.12 s0.04 -0.08 0.08 -0.04 c0.04 0 0.04 0.04 0.04 0.08 c-0.12 0.24 0.16 0.4 0.2 0.64 c0 0.04 0.04 0.08 0.08 0.08 z M55.51 26.84 c0.24 -0.04 0.52 -0.04 0.8 -0.04 c0.64 0.04 1.24 -0.08 1.88 -0.16 c0.52 -0.04 1.04 -0.12 1.52 -0.28 c0.6 -0.16 1.24 -0.32 1.84 -0.48 c0.16 -0.04 0.2 0 0.16 0.16 c-0.08 0.16 0 0.24 0.2 0.24 c0.08 -0.04 0.2 -0.08 0.24 -0.16 c0.08 -0.16 0.24 -0.16 0.36 -0.24 c0.08 -0.08 0.08 -0.12 0.04 -0.2 c0.08 0.04 0.12 0.08 0.16 0.12 c0.08 0.12 0.12 0.16 0.16 0 c0 -0.04 0.04 -0.08 0.12 -0.04 c0.04 0.04 0.12 0.04 0.16 0.04 c0.04 -0.04 0.12 0 0.12 -0.08 c0.04 -0.04 -0.08 -0.04 -0.12 -0.04 s-0.08 0 -0.12 -0.04 c0 -0.04 -0.04 -0.04 0 -0.04 c0 -0.08 0.04 -0.04 0.04 0 c0.12 0.08 0.2 0.08 0.24 -0.08 s0.24 -0.16 0.32 -0.24 c0.04 -0.04 0.04 0.12 0.12 0.16 c0.04 0.04 0.04 0.08 0.12 0.04 c0.12 -0.04 0.2 -0.12 0.2 -0.24 c0.04 -0.08 0.04 -0.12 -0.04 -0.12 c-0.08 -0.04 -0.08 -0.12 -0.04 -0.16 s0.08 0 0.12 0.04 c0.04 0.08 0.12 0.08 0.16 0 s0.08 -0.08 0.12 -0.12 c0.08 -0.04 0.12 -0.12 0.12 -0.2 s-0.08 0 -0.16 -0.04 s-0.2 -0.08 -0.08 -0.16 c0.24 -0.16 0.12 -0.28 0.04 -0.44 c-0.04 0 -0.04 -0.04 -0.04 -0.04 c0.04 -0.04 0.08 -0.16 0.12 -0.08 c0.04 0.16 0.12 0.04 0.16 0 c0.08 0 0.12 -0.08 0.16 0.04 c0 0.04 0.08 0.08 0.12 0.04 c0.08 0 0 -0.04 -0.04 -0.08 c0 -0.16 -0.04 -0.36 0 -0.4 c0.16 -0.12 0.2 -0.28 0.24 -0.44 c0.08 -0.12 0.2 -0.04 0.28 -0.12 c0.08 0.08 0.12 0 0.08 -0.08 c0 -0.24 0.04 -0.44 0.16 -0.64 l0 -0.08 c0 -0.2 -0.04 -0.44 0 -0.68 c0.04 -0.36 0 -0.72 -0.04 -1.08 c-0.04 -0.72 -0.44 -1.28 -0.76 -1.88 c-0.04 -0.12 -0.2 -0.08 -0.28 -0.16 c-0.04 0 -0.04 0.04 -0.04 0.04 c0.08 0.16 0.24 0.28 0.28 0.48 c0 0 0.08 0.08 0.12 0.16 s0 0.24 0.04 0.28 c0.12 0.04 0.12 0.08 0.12 0.16 c-0.04 0.08 -0.12 0.08 -0.2 0.04 c0 0 -0.08 0 -0.08 0.04 s0.08 0.04 0.08 0.04 c0.24 0.04 0.24 0.08 0.12 0.24 l0 0.12 c0.08 0.04 0.08 -0.04 0.08 -0.04 c0.04 -0.04 0.04 -0.04 0.08 -0.04 s0.04 0.04 0.04 0.08 c-0.08 0.16 -0.12 0.28 0.08 0.4 l-0.04 0.04 c-0.12 0.16 -0.04 0.24 0.12 0.24 c0.08 0 0.12 0.08 0.12 0.12 c0 0.08 -0.08 0 -0.12 0 c-0.12 0.04 -0.24 0.04 -0.36 -0.08 c-0.08 -0.08 0 -0.2 0 -0.2 c0.16 -0.16 0.08 -0.28 -0.04 -0.44 c-0.04 0 -0.08 -0.04 -0.08 -0.08 c0 -0.12 0.04 -0.28 -0.16 -0.24 c-0.04 0 -0.04 -0.04 -0.04 -0.08 c0 -0.24 -0.04 -0.36 -0.28 -0.44 c-0.04 0 -0.12 0.04 -0.08 -0.04 c0.04 -0.16 0 -0.08 -0.08 -0.04 s-0.12 -0.04 -0.16 -0.08 c0 -0.08 -0.04 -0.12 -0.08 -0.16 c-0.16 -0.24 -0.4 -0.36 -0.56 -0.56 c-0.16 -0.16 -0.32 -0.28 -0.52 -0.32 c-0.32 -0.04 -0.32 -0.08 -0.44 -0.36 l0 -0.04 c-0.12 0.12 -0.28 -0.04 -0.36 0.04 c-0.08 0.12 -0.12 0.04 -0.2 0 c0 -0.04 -0.04 -0.08 -0.08 -0.08 c-0.04 0.04 0 0.08 0.04 0.12 l0.04 0.04 c-0.04 0.04 -0.08 0 -0.08 0 c-0.12 -0.04 -0.28 0.04 -0.36 -0.08 c0 -0.04 -0.08 -0.04 -0.12 0 c-0.08 0.08 -0.28 0 -0.28 -0.08 c0 -0.04 0.08 -0.08 0 -0.12 c-0.08 0 -0.08 0.08 -0.08 0.08 c-0.04 0.04 -0.08 0.12 -0.08 0.08 c-0.08 0 -0.04 -0.04 -0.04 -0.08 c0 -0.08 -0.04 -0.08 -0.08 -0.08 c-0.16 0 -0.28 0 -0.4 0.04 c0 -0.04 -0.12 -0.12 0 -0.16 c0.04 0 0.04 -0.04 0.04 -0.04 c-0.04 0 -0.04 -0.04 -0.08 -0.04 c-0.04 0.04 -0.12 0.08 -0.16 0.16 s0 0.12 0.08 0.16 c-0.08 0 -0.16 -0.04 -0.2 0.04 c0 0.12 -0.04 0.04 -0.04 0.04 c-0.04 -0.04 -0.12 -0.08 -0.08 -0.12 s0.12 -0.08 0 -0.12 c-0.08 -0.04 -0.16 -0.04 -0.2 0.08 c0 0 0.04 0.08 0 0.08 c-0.08 0 -0.04 -0.08 -0.04 -0.12 c-0.04 -0.04 -0.04 -0.08 -0.08 -0.08 s-0.04 0.08 -0.04 0.12 c0 0.12 0.04 0.2 -0.08 0.04 l-0.08 0 c-0.04 0.12 -0.16 0.08 -0.24 0.12 c-0.04 0.04 -0.04 0 -0.08 -0.04 c-0.08 -0.12 0.04 -0.12 0.08 -0.16 l0 -0.08 c-0.04 -0.04 -0.04 0 -0.08 0.04 c-0.16 0.16 -0.32 0.28 -0.56 0.36 c-0.12 0 -0.28 0 -0.24 -0.04 c0.04 -0.16 -0.08 -0.16 -0.12 -0.24 c-0.12 -0.16 -0.16 0.04 -0.24 0.08 c-0.04 0 -0.12 0 -0.16 0.04 c-0.12 0.04 -0.32 -0.12 -0.36 0.12 l-0.04 0.04 c-0.16 0 -0.32 -0.08 -0.52 -0.04 c-0.04 0.04 -0.16 -0.04 -0.24 0.04 c-0.12 0.12 -0.2 0.08 -0.32 0 c-0.04 -0.04 -0.12 -0.08 -0.12 0.04 c-0.04 0.2 -0.12 0.32 -0.32 0.44 c-0.04 0.04 -0.04 0.08 0 0.08 c0.12 0.08 0.04 0.12 0 0.16 c-0.08 0.08 -0.08 0.16 -0.04 0.28 c0.04 0.04 0 0.04 0 0.08 c-0.04 0.24 -0.12 0.48 -0.12 0.76 c-0.08 0.32 -0.08 0.68 -0.04 1.04 c0 0.12 -0.08 0.2 -0.04 0.28 c0.04 0.36 0.04 0.72 0 1.04 c-0.04 0.48 -0.16 0.96 -0.24 1.48 c-0.08 0.68 0 1.4 0 2.12 c0 0.24 0.04 0.44 0.04 0.64 c0.04 0.16 0.04 0.32 0 0.48 c0 0.12 0.04 0.16 0.16 0.16 z M63.31 24.880000000000003 l0 -0.04 c0.12 -0.08 0.16 -0.24 0.32 -0.2 c0.04 0 0.04 0.04 0.08 0.04 c0 0.04 -0.04 0.04 -0.04 0.08 c-0.08 0 -0.12 0.04 -0.16 0.04 c-0.08 0.04 -0.12 0.12 -0.2 0.08 z M63.87 24.84 c-0.04 0 -0.04 -0.04 -0.04 -0.04 c0.04 -0.08 0 -0.16 0.12 -0.16 c0.04 0 0.08 0 0.12 -0.04 c0 0 0.04 0 0.04 0.04 s-0.04 0.04 -0.04 0.04 c-0.04 0.04 -0.08 0.04 -0.12 0.08 c-0.04 0 -0.04 0.08 -0.08 0.08 z M65.03 21.8 c-0.04 0 -0.04 -0.04 -0.04 -0.04 c-0.04 -0.2 0.04 -0.4 0 -0.6 c0 -0.12 0.12 -0.04 0.16 -0.08 c0.08 -0.04 0.04 0.04 0.04 0.08 c0.04 0.16 0 0.32 0.08 0.44 c0 0.08 0 0.12 -0.04 0.16 c-0.04 -0.04 0 -0.08 -0.04 -0.12 c0 -0.04 -0.04 -0.08 -0.04 -0.08 c-0.04 0.04 -0.04 0.08 0 0.08 c0 0.08 -0.04 0.12 -0.08 0.12 c0 0.04 -0.04 0.04 -0.04 0.04 z M64.15 18.76 c0.04 0 0.16 0 0.08 -0.12 c0 -0.08 0.04 -0.12 -0.04 -0.16 c0 0.08 -0.16 0.12 -0.12 0.2 c0 0.04 0 0.12 0.08 0.08 z M98.285 41.16 c-0.16 0.04 -0.28 0 -0.36 -0.16 c-0.16 -0.28 -0.12 -0.56 -0.12 -0.84 s-0.04 -0.32 -0.32 -0.32 c-0.04 0.04 -0.08 0.04 -0.08 0.04 c-0.2 -0.16 -0.36 -0.08 -0.52 0 s-0.32 0.08 -0.48 0.12 c-0.08 0 -0.12 0 -0.12 -0.04 c-0.12 -0.12 -0.2 -0.12 -0.28 0 c0 0.04 -0.04 0.04 -0.04 0 c-0.04 -0.08 -0.12 -0.04 -0.16 -0.04 c-0.08 0.08 -0.16 0.16 -0.28 0.04 c0 -0.04 -0.04 -0.04 -0.04 0 c-0.12 0.2 -0.36 0.04 -0.52 0.08 c-0.08 0.08 -0.16 0 -0.08 -0.12 c0 -0.04 0 -0.04 -0.04 -0.04 c-0.32 0.04 -0.6 0 -0.92 -0.04 c-0.08 0 -0.12 0.04 -0.12 0.08 c-0.04 0.08 -0.04 0.08 -0.08 0.08 c-0.08 0 -0.12 -0.04 -0.12 -0.08 s0 -0.12 -0.08 -0.12 c-0.08 -0.04 -0.12 0.04 -0.16 0.08 s0 0.08 -0.08 0.08 l0 -0.08 c0 -0.04 0 -0.12 -0.08 -0.12 c-0.04 0 -0.08 0 -0.08 0.08 c-0.04 0.08 -0.04 0.08 -0.12 0.04 c-0.12 -0.08 -0.28 -0.12 -0.44 0 c-0.08 0.04 -0.2 0.08 -0.32 0.04 c-0.2 -0.08 -0.44 -0.04 -0.64 -0.16 c-0.04 -0.04 -0.12 -0.2 -0.2 -0.04 c-0.04 0.04 -0.04 -0.08 -0.04 -0.12 c0.12 -0.12 -0.12 -0.16 -0.12 -0.28 c-0.04 0.04 -0.12 0.08 -0.16 0.12 c-0.04 0.08 0.04 0.04 0.04 0.04 c0.04 0.04 0 0.08 0 0.08 c-0.04 0.04 -0.08 0.08 -0.16 0.12 c-0.04 0 -0.04 -0.08 -0.04 -0.12 c0 -0.08 -0.04 -0.04 -0.12 -0.04 c-0.12 0.04 -0.24 0.12 -0.36 0 c-0.08 -0.08 -0.12 -0.08 -0.08 0.04 c0 0.16 -0.08 0.16 -0.16 0.08 c-0.12 -0.08 -0.2 -0.04 -0.24 0.04 c-0.04 0.04 -0.08 0.08 -0.08 0 c-0.04 -0.08 -0.2 -0.04 -0.08 -0.16 c0.04 -0.04 0.12 -0.04 0.08 -0.08 s-0.16 -0.08 -0.2 -0.04 c-0.12 0.16 -0.2 0.12 -0.32 0.04 c-0.04 -0.08 -0.12 0 -0.16 0 c-0.12 0.04 0 0.08 0 0.12 s0 0.16 -0.08 0.08 c-0.08 -0.04 -0.12 -0.08 -0.16 0 c-0.08 0.04 -0.04 -0.04 -0.08 -0.08 c0 0 0 -0.08 -0.04 -0.08 s-0.12 0 -0.12 0.04 c-0.04 0.08 -0.04 0.12 -0.12 0.08 c-0.08 0 -0.12 -0.04 -0.08 -0.12 c0.04 -0.04 0.04 -0.04 0 -0.08 c-0.04 0 -0.12 0 -0.16 0.04 c-0.04 0 0.04 0.04 0.04 0.04 c0.04 0.08 0.04 0.12 -0.04 0.16 c-0.08 0 -0.16 0.08 -0.2 -0.04 c-0.04 -0.2 -0.12 -0.08 -0.16 0 c-0.04 0.04 -0.04 0.12 -0.08 0.04 c-0.16 -0.16 -0.28 0 -0.4 0.04 c0 0 -0.04 0 -0.04 0.04 c-0.08 0.16 -0.2 0.2 -0.4 0.12 c0 0 0 -0.04 -0.04 -0.04 c-0.08 -0.04 -0.2 0.2 -0.28 0.04 c-0.08 -0.2 -0.16 -0.08 -0.24 0 c-0.04 0 -0.04 0.04 -0.08 0 c-0.08 -0.04 -0.2 -0.08 -0.28 -0.04 c-0.08 0 -0.08 -0.08 -0.08 -0.12 c0.04 -0.12 -0.08 -0.2 -0.16 -0.28 c-0.04 0 -0.04 -0.04 -0.08 0 l0 0.08 c0.04 0 0.08 0.08 0.08 0.12 c0.08 0.04 0.12 0.12 0.04 0.16 c-0.08 0.08 -0.16 0.04 -0.2 -0.04 c-0.12 -0.08 -0.16 -0.08 -0.28 0 s-0.24 0 -0.36 -0.04 c-0.08 0 -0.28 0.08 -0.12 -0.16 c0 0 0 -0.04 -0.04 -0.08 c-0.04 0 -0.12 0.04 -0.12 0.08 c-0.04 0.24 -0.16 0.16 -0.24 0.04 c-0.08 -0.08 -0.08 0 -0.12 0.04 s-0.04 0.08 -0.08 0.12 c0 0.08 0 0.12 -0.08 0.08 c-0.04 0 -0.04 -0.04 -0.04 -0.08 s0.04 -0.08 0 -0.12 c-0.04 0 -0.04 0.04 -0.08 0.08 c-0.28 0.2 -0.4 0.2 -0.72 0.08 c-0.12 0 -0.12 0.08 -0.2 0.08 c-0.28 0.04 -0.52 0 -0.76 -0.04 c-0.12 -0.04 -0.24 -0.04 -0.28 0.12 l0 0 c-0.08 0.08 -0.12 0.16 -0.2 0.2 c-0.12 0.04 -0.12 -0.12 -0.2 -0.16 c-0.32 -0.16 -0.48 -0.44 -0.6 -0.76 c-0.16 -0.32 -0.24 -0.6 -0.16 -0.96 c0.04 -0.12 0 -0.28 0 -0.44 c-0.16 -0.6 -0.08 -1.2 -0.12 -1.8 c-0.04 -0.76 -0.16 -1.52 -0.24 -2.28 c-0.04 -0.44 -0.04 -0.88 -0.12 -1.36 c-0.04 -0.6 0 -1.2 -0.04 -1.8 c-0.04 -0.68 -0.04 -1.32 -0.08 -2 c-0.04 -0.64 -0.08 -1.24 -0.08 -1.84 c0.04 -0.2 0.04 -0.4 0 -0.6 s0.04 -0.4 0.04 -0.64 c0 -0.32 0 -0.68 0.08 -1 c0 -0.16 -0.04 -0.32 0 -0.48 c0.08 -0.2 -0.12 -0.44 0.08 -0.64 c0.04 -0.04 -0.08 -0.08 -0.08 -0.16 c0.04 -0.24 0.08 -0.48 0.08 -0.72 c0 -0.28 0.12 -0.52 0.08 -0.76 c0 -0.16 0.04 -0.28 0.08 -0.4 c0.04 -0.16 0 -0.32 0 -0.48 c0 -0.12 -0.08 -0.28 0 -0.44 c0.04 -0.04 0.04 -0.08 0.04 -0.08 c0.24 0.12 0.12 -0.16 0.24 -0.16 c0.08 -0.04 0 -0.12 0 -0.16 c-0.04 -0.08 -0.08 -0.16 -0.08 -0.24 c-0.08 -0.12 0 -0.28 -0.04 -0.44 s-0.08 -0.32 -0.04 -0.48 c0 -0.04 -0.12 -0.08 -0.16 -0.16 c0 -0.04 -0.04 -0.12 0 -0.12 c0.04 -0.04 0.04 0.04 0.08 0.04 c0.04 0.04 0.16 -0.12 0.16 -0.2 c-0.04 -0.08 -0.04 -0.16 0 -0.24 c0.04 -0.04 0.04 -0.08 0.04 -0.08 l0 -0.64 c0.08 -0.2 -0.08 -0.24 -0.16 -0.32 l-0.08 0 c-0.08 -0.08 -0.2 0 -0.28 -0.12 c0.12 -0.04 0.16 -0.24 0.32 -0.28 c0.04 -0.04 0.16 0 0.16 -0.08 c-0.04 -0.08 -0.12 -0.04 -0.16 -0.04 c0 0 -0.04 0 -0.04 -0.04 c0 0 0 -0.04 0.04 -0.04 c0.04 -0.04 0.12 -0.08 0.2 -0.08 c0.04 -0.04 0.12 0 0.12 -0.08 s-0.08 -0.04 -0.12 -0.08 c-0.12 -0.04 -0.24 0 -0.32 -0.04 c-0.04 0 -0.08 0 -0.08 -0.04 l0.08 0 c0.08 -0.04 0.16 -0.04 0.24 -0.08 c0.04 0 0.08 0 0.12 -0.08 c0 -0.08 -0.08 -0.04 -0.12 -0.08 c-0.04 0 -0.12 0 -0.08 -0.08 c0 -0.08 0.08 -0.04 0.12 -0.04 c0.08 0.04 0.12 0 0.16 -0.04 c0.04 -0.08 -0.08 -0.08 -0.12 -0.12 c0 0 -0.04 -0.04 -0.08 -0.04 c-0.12 -0.04 -0.2 -0.04 -0.04 -0.12 c0.08 -0.04 0.04 -0.12 -0.04 -0.16 c-0.04 0 -0.12 0 -0.12 -0.04 c0.08 -0.08 -0.04 -0.24 0.08 -0.28 c0.08 -0.04 0.08 -0.04 0.04 -0.12 l-0.04 -0.04 c0.12 -0.2 0.04 -0.28 -0.16 -0.4 l0 -0.04 c0.08 -0.12 0.12 -0.2 -0.08 -0.16 c-0.04 0 -0.08 -0.04 -0.08 -0.08 c0.04 -0.04 0.08 -0.04 0.12 -0.04 c0.12 0.04 0.2 -0.04 0.28 -0.08 s0.12 -0.12 0.08 -0.2 c-0.08 -0.12 -0.04 -0.16 0.08 -0.24 c0.08 -0.08 0.04 -0.2 0 -0.28 c0 -0.08 0 -0.08 0.08 -0.12 c0.08 0 0.2 -0.04 0.28 -0.08 s0.12 0.08 0.12 0.12 c0.04 0.08 0 0.16 0.04 0.24 c0 0.08 0.04 0.16 0.12 0.12 c0.08 0 0.12 -0.04 0.12 -0.12 c-0.04 -0.08 -0.04 -0.12 0.04 -0.16 s0.08 0.04 0.12 0.08 c0 0.04 0.04 0.08 0.12 0.04 c0.16 -0.08 0.36 -0.04 0.48 -0.2 c0.08 -0.04 0.08 0 0.12 0.04 c0.04 0.16 0.24 0.28 0.36 0.16 c0.16 -0.12 0.24 0 0.36 0.08 c0.04 0.04 0.08 0.12 0.16 0.12 c0.12 0 0.16 -0.12 0.12 -0.24 l0 -0.08 c0.04 0 0.04 0.04 0.08 0.08 c0.08 0.08 0.2 0.2 0.28 -0.04 c0 -0.04 0.08 -0.04 0.12 0 c0.12 0.08 0.2 0.08 0.28 -0.08 c0 -0.04 0 -0.04 0.04 -0.08 c0 0.04 0 0.04 0.04 0.08 c0 0.12 0.16 0.04 0.2 0.16 l0.04 -0.04 c0.04 -0.12 0.12 -0.2 0.16 -0.28 c0.04 -0.12 0.12 -0.08 0.16 -0.04 c0.12 0.08 0.16 -0.04 0.28 -0.04 c0.12 0.04 0.28 0.04 0.4 0.08 s0.2 0.04 0.24 -0.08 c0.08 -0.08 0.2 0.04 0.28 0 c0.04 -0.04 0.12 0.08 0.2 -0.04 c0 -0.04 0.04 0 0.04 0.04 c0.04 0.04 -0.04 0.16 0.04 0.12 c0.16 -0.04 0.36 0.08 0.44 -0.12 c0.04 -0.04 0.08 -0.08 0.16 -0.08 c0.4 0.04 0.8 0.08 1.2 0.08 c0.2 0 0.36 -0.08 0.6 -0.08 c0.36 0 0.76 -0.04 1.16 -0.04 c0.04 0 0.16 -0.04 0.2 0.08 c0.04 0.08 0.08 -0.08 0.16 -0.04 c0.52 0.16 1.04 -0.08 1.56 -0.04 c0.6 0.04 1.16 0.04 1.76 0.12 c0.44 0.08 0.92 0.12 1.36 0.04 c0.2 -0.04 0.4 -0.08 0.56 0.12 c0 0 0.04 0.04 0.08 0.04 c0.48 -0.04 1 0.08 1.48 0.08 c0.16 0 0.32 0.16 0.44 -0.12 c0 -0.04 0.04 0.04 0.08 0.08 c0.04 0.16 0.16 0.12 0.28 0.12 c0.12 -0.04 0.12 -0.12 0.12 -0.24 c0 -0.08 0 -0.2 0.08 -0.2 s0.04 0.16 0.08 0.24 l0 0.04 c-0.08 0.16 0.12 0.28 0.16 0.44 c0 0.12 0.04 0.24 0.08 0.36 c0.04 0.04 0.04 0.04 0 0.08 c-0.2 0.2 -0.08 0.4 0.04 0.6 c0.12 0.24 0.2 0.52 0.16 0.8 c-0.04 0.24 0.08 0.52 0.08 0.76 c-0.04 0.08 0 0.16 -0.08 0.24 s-0.08 0.2 0 0.32 c0.04 0.04 0.04 0.08 0 0.16 c-0.04 0.12 0 0.28 0.04 0.4 c0 0 0 0.04 0.04 0.04 c0.04 0.04 0.08 -0.04 0.12 0 c0.08 0.04 0 0.04 -0.04 0.04 c-0.04 0.04 -0.08 0.04 -0.12 0.08 c-0.08 0.12 -0.16 0.24 -0.12 0.4 c0.04 0.12 -0.08 0.08 -0.08 0.12 c-0.12 -0.08 -0.36 0.12 -0.44 -0.16 c-0.04 -0.08 -0.12 -0.04 -0.2 0 c-0.12 0 -0.28 0.12 -0.36 -0.12 c-0.04 -0.04 -0.08 0 -0.12 0 c-0.08 0 -0.2 0.04 -0.24 -0.08 c0 -0.04 -0.08 -0.04 -0.08 0 c-0.08 0.08 -0.2 0.04 -0.28 0 c-0.2 -0.08 -0.44 0 -0.68 0 c-0.28 0.04 -0.6 -0.08 -0.92 -0.04 c-0.04 0.04 -0.04 0 -0.08 -0.04 c0 -0.24 -0.12 -0.08 -0.2 -0.04 s-0.12 0.12 -0.24 0.12 c-0.08 -0.04 -0.16 0.04 -0.16 -0.12 c0 -0.08 -0.16 -0.08 -0.24 -0.04 c-0.04 0 -0.08 0.08 -0.08 0.04 c-0.04 -0.2 -0.24 -0.12 -0.32 -0.12 c-0.16 -0.04 -0.28 0 -0.44 -0.04 c0 -0.04 0 0.04 0 0.08 s-0.04 0.08 -0.08 0.04 c-0.16 -0.16 -0.32 0.04 -0.48 0 l-0.08 0 c-0.08 -0.28 -0.32 0.08 -0.44 -0.08 c-0.04 -0.04 -0.08 -0.04 -0.08 0 c0.04 0.24 -0.04 0.08 -0.08 0.04 c-0.08 -0.04 -0.2 0 -0.28 0.04 c-0.04 0.04 -0.08 0.12 -0.16 0 c-0.08 -0.08 -0.24 0 -0.32 0.08 c-0.12 0.04 -0.24 0.08 -0.36 0 c-0.08 -0.08 -0.12 -0.04 -0.16 0 c-0.08 0.04 -0.12 0.12 -0.16 -0.04 c-0.04 0 -0.08 -0.04 -0.12 0 c-0.04 0.08 -0.12 0.04 -0.16 0.04 c-0.04 0.04 -0.12 0.04 -0.12 0 c-0.04 -0.04 0.04 -0.08 0.04 -0.12 c0.04 -0.04 0.16 0 0.12 -0.08 c-0.04 -0.04 -0.16 -0.04 -0.2 0.04 s-0.12 0.16 -0.08 0.24 c0 0.04 0 0.12 -0.08 0.08 c-0.12 -0.12 -0.28 0 -0.4 0 c-0.16 0 -0.24 -0.04 -0.32 -0.16 c-0.04 -0.12 -0.08 -0.12 -0.12 -0.04 c-0.04 0.04 -0.08 0.12 -0.16 0.04 c-0.04 -0.04 -0.12 0.04 -0.12 0.12 c0 0.16 -0.12 0.12 -0.2 0.08 s-0.12 0 -0.2 0 c-0.16 0.04 -0.32 0 -0.48 0 s-0.36 0.04 -0.52 -0.08 l-0.04 0 c-0.12 0.08 -0.24 0.2 -0.32 -0.04 c0 -0.08 -0.12 -0.08 -0.16 -0.04 c-0.08 0.08 -0.16 0.08 -0.2 -0.04 c-0.04 -0.04 -0.08 -0.08 -0.16 -0.04 c-0.04 0.04 0.04 0.08 0.04 0.12 l0 0.08 c-0.12 -0.08 -0.2 -0.04 -0.28 0 c-0.04 -0.08 -0.16 -0.04 -0.24 -0.08 c-0.04 0 -0.12 -0.08 -0.16 0.08 c0 0.04 -0.16 0.04 -0.2 0.04 c-0.24 -0.08 -0.48 -0.04 -0.68 -0.08 c-0.16 -0.04 -0.2 0 -0.2 0.16 c0.08 0.44 0.24 0.92 0.28 1.36 c0.08 0.64 0.08 1.28 0.12 1.92 c0 0.52 0.04 1.04 0.04 1.52 s-0.04 1 -0.04 1.48 c0 0.12 0.04 0.2 0.2 0.2 c0.32 0 0.64 0 0.96 0.04 c0.28 0.08 0.52 -0.04 0.8 0.04 c0.08 0.04 0.24 0 0.32 -0.04 c0.12 -0.04 0.24 -0.08 0.24 0.12 c-0.04 0.08 0.08 0.04 0.12 0.04 c0.16 0 0.32 -0.08 0.48 -0.08 s0.28 -0.04 0.44 0.04 c0.04 0.04 0.24 0.12 0.24 -0.08 c0 -0.08 0.08 -0.04 0.16 -0.04 c0.04 -0.04 0.08 0 0.12 0.08 c0.04 0.16 0.2 0.2 0.28 0.04 c0.04 0 0.04 -0.08 0.12 -0.08 c0.04 0 0.08 0.04 0.08 -0.04 c0.04 -0.04 0 -0.04 -0.04 -0.08 c-0.04 0 -0.08 0 -0.08 -0.04 s0.04 -0.04 0.08 -0.04 l0.12 0 c0.04 0.04 0.12 0.08 0.12 0.04 c0.04 -0.08 -0.04 -0.08 -0.04 -0.08 c-0.04 -0.12 0.08 -0.12 0.12 -0.16 c0.08 -0.04 0.12 -0.04 0.16 0.04 c0.08 0.16 0.28 0.2 0.4 0.36 c0 0.04 0 0 0.04 -0.04 c0 -0.04 0 -0.08 0.04 -0.04 s0 0.12 0.08 0.12 c0.04 -0.04 0.04 -0.12 0 -0.16 c0 -0.08 0 -0.16 0.08 -0.2 c0.12 -0.04 0.08 0.08 0.12 0.12 s0.08 0.12 0.12 0.16 c0.2 0.08 0.2 0.2 0.04 0.32 c-0.08 0 -0.12 0.08 -0.08 0.16 c0 0.04 0.08 0.16 0.2 0.08 l0.04 0 c0.04 0.04 0 0.08 -0.04 0.08 c-0.24 0.08 -0.24 0.24 -0.2 0.48 c0.04 0.16 0.04 0.32 0.04 0.48 c0 0.08 0.08 0.12 0.12 0.04 c0.12 -0.2 0.24 -0.4 0.24 -0.64 c0 -0.08 0 -0.12 0.08 -0.16 l0.04 0 c0.08 0.08 0 0.12 0 0.16 c-0.04 0.24 0 0.44 0 0.68 c0 0.12 0.04 0.2 -0.12 0.28 s-0.04 0.24 -0.04 0.36 c0.08 0.2 0.12 0.4 0.12 0.6 c-0.04 0.16 0.04 0.28 0 0.4 c0 0.04 0.04 0.08 0.04 0.12 c0.32 0.08 0.16 0.28 0.16 0.44 c0 0.08 -0.04 0.16 0 0.28 c0.04 0.24 -0.08 0.44 -0.16 0.6 c0 0.08 -0.08 0.08 -0.12 0.04 c-0.28 -0.16 -0.56 -0.08 -0.84 -0.04 c-0.2 0.04 -0.4 0.08 -0.6 0.04 c-0.08 0 -0.24 0.2 -0.24 -0.08 c-0.08 0.04 -0.16 0 -0.24 0.08 c-0.08 0.04 -0.12 0.04 -0.2 0 c-0.04 0 -0.12 0 -0.12 -0.04 c0 -0.08 0.08 -0.04 0.12 -0.04 c0.12 0 0.04 -0.08 0.04 -0.12 c0.04 -0.04 0 -0.04 -0.04 -0.04 c-0.12 -0.04 -0.24 0.04 -0.24 0.16 c-0.04 0.16 -0.12 0.12 -0.2 0.12 c-0.04 0 -0.08 -0.04 -0.16 -0.04 c-0.04 0.04 -0.08 0 -0.08 -0.04 c0 -0.08 0 -0.12 0.04 -0.16 c0.04 0 0.16 0.08 0.12 -0.04 c0 -0.04 -0.12 -0.08 -0.16 -0.04 c-0.08 0.08 -0.32 -0.08 -0.32 0.16 c0 0.04 -0.08 -0.04 -0.12 -0.04 c-0.04 -0.04 -0.08 -0.16 -0.12 0 c0 0.04 -0.08 0.04 -0.12 0 s-0.04 -0.08 -0.04 -0.12 s0.12 -0.04 0.04 -0.08 s-0.12 0 -0.16 0.04 c-0.04 0.16 -0.16 0.12 -0.28 0.08 s-0.24 -0.16 -0.44 -0.04 c-0.04 0.04 -0.08 -0.08 -0.08 -0.12 c-0.04 -0.12 -0.08 -0.12 -0.16 -0.08 c-0.16 0.16 -0.32 0.04 -0.44 0 c-0.2 -0.08 -0.36 -0.08 -0.52 -0.04 c-0.12 0.04 -0.16 0.08 -0.04 0.16 c0.04 0.04 0.08 0.08 0.08 0.16 c0 0.04 0.04 0.12 -0.08 0.08 c-0.04 0 -0.12 0.04 -0.2 0.04 c-0.04 0 -0.12 0.2 -0.16 -0.04 c0 -0.04 -0.28 0.12 -0.28 0.2 c-0.08 0.36 -0.08 0.76 -0.12 1.12 c0 0.6 0 1.2 -0.04 1.8 c0 0.56 -0.08 1.12 -0.16 1.68 c0 0.24 0 0.48 -0.04 0.72 c-0.04 0.16 0.16 0.2 0.16 0.32 l0.04 0 c0.16 -0.12 0.32 -0.08 0.52 -0.04 c0.12 0.04 0.28 -0.04 0.44 -0.04 s0.32 0.04 0.52 0 c0.04 0 0.04 0.08 0.04 0.08 c0.04 0.04 0.04 0.08 0.08 0.04 c0 -0.16 0.12 -0.08 0.2 -0.12 c0.24 -0.08 0.24 -0.08 0.16 0.16 c0 0.04 -0.04 0.12 0 0.12 c0.08 0 0.08 -0.08 0.08 -0.12 c0.12 -0.24 0.12 -0.24 0.36 -0.12 c0.16 0.04 0.28 -0.04 0.4 -0.04 c0.2 0 0.36 -0.04 0.52 0.04 l0.28 0 c0.2 -0.04 0.36 -0.04 0.56 0.04 c0.08 0.04 0.24 0.12 0.36 -0.04 c0.08 -0.12 0.24 0 0.36 0 c0.2 0.04 0.4 0.04 0.6 0.08 c0.08 0.04 0.16 0 0.16 0.12 c0 0.04 0.08 0.12 0.12 0 c0 -0.04 0.04 -0.12 0.08 -0.08 c0.12 0.04 0.24 0 0.36 -0.04 c0.04 0 0.08 -0.04 0.12 0 c0 0.04 -0.04 0.08 -0.08 0.12 c0 0 -0.08 0 -0.04 0.04 c0 0.04 0.04 0.04 0.08 0.04 c0.12 -0.04 0.24 0.08 0.32 -0.08 c0.32 -0.04 0.6 -0.2 0.96 -0.08 c0.28 0.08 0.64 0 0.92 0.04 c0.08 0.04 0.2 0 0.24 0.08 c0 0.04 0.04 0.04 0.04 0.04 c0.2 -0.08 0.4 -0.08 0.56 -0.16 c0.08 -0.08 0.16 -0.04 0.2 -0.04 c0.16 0 0.12 0.04 0.08 0.12 c-0.04 0 -0.08 0.04 -0.04 0.04 c0.04 0.04 0.08 0 0.08 0 c0.08 -0.16 0.16 -0.28 0.36 -0.16 c0.16 -0.2 0.44 0.08 0.6 -0.12 l0.08 0 c0.2 0.2 0.44 0.08 0.68 0.08 c0.2 0 0.44 -0.08 0.64 0.04 c0.04 0 0.08 0 0.08 -0.04 c0.24 -0.16 0.44 -0.16 0.68 -0.08 c0.12 0.04 0.28 0.08 0.44 0.04 c0.12 -0.04 0.28 0 0.4 0.04 c0.08 0.04 0.12 0.04 0.12 0.08 s-0.04 0.08 -0.08 0.08 c-0.2 0.12 -0.08 0.28 -0.04 0.4 s0.08 0.24 0.08 0.32 c0 0.04 0 0.08 -0.04 0.08 c-0.16 0.12 -0.12 0.32 -0.28 0.44 c-0.04 0.04 -0.08 0.08 -0.04 0.08 c0.2 -0.04 0.08 0.12 0.12 0.16 c0.12 0.08 0 0.24 0.08 0.36 c0.04 0 0 0.12 -0.08 0.12 s-0.04 -0.04 -0.04 -0.08 c0 -0.08 -0.04 -0.12 -0.08 -0.12 s-0.04 0.08 0 0.12 c0 0.08 0 0.28 0.2 0.16 c0 0 0.04 0 0.04 0.04 c0 0.08 0.04 0.16 -0.04 0.2 c-0.12 0.08 -0.16 0.12 0 0.2 c0.04 0.04 0.04 0.12 0.04 0.16 c0.08 0.52 0.08 1.04 0 1.56 c-0.08 0.4 -0.12 0.8 -0.2 1.2 c-0.08 0.28 -0.2 0.48 -0.48 0.6 z M86.085 27.16 c0.08 0.08 0.16 0.12 0.16 0 c0 -0.16 0.16 0 0.2 -0.12 l0 0 c-0.2 0.04 0.04 -0.16 -0.12 -0.16 c-0.08 0 -0.16 -0.08 -0.2 0.08 c-0.04 0.08 -0.08 0.16 -0.16 0 c0 -0.08 -0.04 0 -0.04 0.04 c-0.12 0.2 0.08 0.12 0.16 0.16 z M86.965 27.16 c0.08 0 0.08 -0.04 0.12 -0.08 c0.04 -0.08 0 -0.08 -0.04 -0.12 c-0.04 0 -0.08 0 -0.08 -0.04 c0.04 -0.12 0.36 -0.28 0.48 -0.24 c0.16 0.08 0.32 -0.04 0.44 0.08 c0.12 0.04 0.12 -0.12 0.24 -0.08 c0.04 0 0.08 0 0.08 -0.04 c0 -0.08 -0.08 -0.08 -0.12 -0.08 c-0.04 -0.04 -0.16 0.04 -0.16 0.04 c-0.08 -0.12 -0.16 -0.16 -0.28 -0.16 l-0.04 0 c0 -0.04 0.04 -0.04 0.04 -0.04 c0.04 -0.04 0.12 -0.04 0.08 -0.12 c0 -0.04 -0.08 -0.04 -0.12 0 c-0.12 0 -0.2 0.16 -0.4 0.04 c-0.04 -0.04 -0.24 -0.08 -0.4 0.04 l-0.12 0 c-0.28 -0.24 -0.6 -0.2 -0.92 -0.32 c-0.04 0 -0.12 -0.04 -0.12 0.08 c0 0.08 0 0.16 0.08 0.16 c0.04 0 0.08 -0.04 0.12 -0.04 c0.08 0 0.16 -0.04 0.2 0.04 c0 0.04 0.04 0.08 0 0.12 s-0.08 -0.04 -0.16 -0.04 c-0.12 -0.04 -0.2 0.04 -0.24 0.12 s0.04 0.12 0.08 0.12 c0.2 0.04 0.4 0.04 0.56 -0.08 c0.16 -0.08 0.24 0.04 0.32 0.08 c0.12 0.08 0 0.12 0 0.2 c-0.04 0.04 -0.04 0.12 -0.08 0.16 c0 0.04 0.04 0.08 0.08 0.08 s0.04 0 0.04 -0.04 c0.04 -0.08 0 -0.16 0.08 -0.2 c0.12 0 0.04 0.16 0.12 0.2 c0 0 0.04 0.04 0.04 0.08 c0 0.08 0.04 0.08 0.08 0.08 z M97.88499999999999 36.8 c0.08 -0.04 0.04 -0.2 0.12 -0.24 c0 -0.04 -0.04 -0.08 -0.04 -0.04 c-0.08 0.08 -0.2 0.08 -0.32 0.08 c-0.04 0 -0.08 0.04 -0.04 0.08 c0.08 0.04 0.2 0.12 0.28 0.12 z M85.285 15.760000000000002 c0.08 -0.04 0.28 0 0.36 -0.12 c0 -0.04 0.2 -0.12 0 -0.16 c-0.08 0 -0.04 -0.08 0 -0.12 c0 -0.04 0.04 -0.08 0 -0.12 c-0.08 -0.08 -0.04 -0.12 0 -0.2 l0.08 -0.08 c-0.12 0 -0.04 -0.2 -0.24 -0.16 s-0.4 -0.04 -0.6 0.16 c-0.04 0.04 -0.16 0 -0.12 0.12 c0.04 0.08 0.16 0.04 0.2 0 c0.16 -0.12 0.28 0.16 0.44 0.04 c0.04 0.08 0.12 0.12 0.12 0.2 c0 0.04 -0.04 0.12 -0.08 0.16 c-0.08 0 -0.08 -0.12 -0.12 -0.16 l-0.08 0 c0 -0.04 -0.04 0 0 0 c0.08 0.12 0 0.2 -0.04 0.24 c-0.08 0.12 0.04 0.16 0.08 0.2 z M133.18 40.32 c-0.12 0 -0.2 0 -0.24 -0.12 c0 -0.04 -0.08 -0.04 -0.12 0 c-0.12 0.04 -0.24 0.04 -0.36 0.04 c-0.2 0 -0.4 -0.12 -0.56 -0.2 c-0.28 -0.24 -0.48 -0.56 -0.76 -0.8 c-0.16 -0.16 -0.08 -0.28 0.12 -0.36 c0.36 -0.08 0.72 -0.16 1.12 -0.24 c0.16 0 0.16 -0.08 0.12 -0.2 c-0.2 -0.32 -0.2 -0.68 -0.2 -1.04 c0 -0.24 -0.04 -0.52 -0.08 -0.8 c0 -0.12 0 -0.24 -0.08 -0.36 s-0.12 -0.28 0.04 -0.36 c0.04 -0.04 0.08 -0.04 0.04 -0.12 c0 0 -0.08 -0.04 -0.12 0.04 c0 0 0 0.08 -0.04 0.04 s-0.04 -0.08 0 -0.08 c0 -0.04 0.04 -0.08 0.08 -0.12 s0.04 -0.12 0 -0.16 c-0.2 -0.16 -0.08 -0.4 -0.16 -0.6 s-0.04 -0.4 -0.16 -0.56 c-0.04 -0.08 0.04 -0.2 0.04 -0.28 c0 -0.24 0.04 -0.44 0.04 -0.68 c0 -0.16 0.04 -0.36 -0.04 -0.52 c-0.04 -0.12 0.04 -0.24 0.08 -0.32 s-0.2 -0.08 -0.16 -0.24 c0.04 -0.12 0 -0.24 0.08 -0.32 s0.08 -0.2 0 -0.28 c-0.08 -0.12 -0.04 -0.2 0 -0.36 c0 -0.08 0.04 -0.24 0 -0.32 c-0.08 -0.16 0 -0.32 -0.08 -0.44 c0 -0.08 0.04 -0.12 0.08 -0.12 c0.12 0 0.2 0 0.04 -0.12 c-0.04 0 -0.04 -0.08 -0.04 -0.12 c0 -0.48 -0.04 -0.96 -0.12 -1.4 c-0.04 -0.16 0.04 -0.32 -0.04 -0.44 c-0.04 0 0 -0.08 0 -0.08 c0.2 -0.12 0.12 -0.28 0.08 -0.44 c-0.04 -0.04 -0.08 -0.12 -0.04 -0.16 c0.16 -0.12 0.08 -0.24 -0.04 -0.36 c-0.04 -0.08 -0.04 -0.16 0 -0.24 c0.04 -0.2 -0.08 -0.4 0.04 -0.6 c0.04 -0.04 0 -0.12 0 -0.16 c-0.04 -0.12 -0.08 -0.24 0 -0.36 c0.04 -0.04 0 -0.04 -0.04 -0.08 s-0.04 -0.16 0 -0.2 c0 -0.12 0.08 -0.04 0.12 -0.04 s0.08 0 0.12 -0.04 c0 -0.08 0 -0.16 -0.04 -0.2 c-0.16 -0.08 -0.08 -0.28 -0.2 -0.36 c0 -0.04 -0.08 -0.2 0.08 -0.16 c0.04 0 0.08 0 0.12 -0.08 c0 -0.04 -0.04 -0.08 -0.08 -0.08 c-0.08 -0.04 -0.24 -0.04 -0.04 -0.16 c0 0 -0.08 -0.12 -0.08 -0.2 c0.08 -0.32 -0.04 -0.64 -0.12 -0.92 c-0.08 -0.36 -0.12 -0.72 -0.12 -1.08 c0.04 -0.2 0.04 -0.4 0 -0.6 c-0.04 -0.08 0 -0.2 0.04 -0.28 c0.04 -0.16 0 -0.32 0 -0.48 c0 -0.04 0 -0.08 -0.04 -0.08 l-0.04 0.04 c-0.08 0.52 -0.24 1 -0.4 1.52 c-0.12 0.28 -0.2 0.6 -0.36 0.88 c-0.04 0 -0.04 0.04 -0.08 0.04 c-0.08 0.04 -0.08 0.08 -0.08 0.16 c0.04 0.16 0 0.36 -0.12 0.48 s-0.08 0.24 -0.12 0.36 s0 0.28 -0.16 0.28 c-0.04 0 -0.04 0.04 -0.04 0.04 c0.12 0.16 0.04 0.32 -0.04 0.4 c-0.2 0.48 -0.24 1 -0.52 1.44 c-0.24 0.4 -0.28 0.84 -0.4 1.28 c-0.24 0.72 -0.44 1.44 -0.72 2.16 c-0.24 0.68 -0.44 1.36 -0.6 2.04 c-0.24 0.8 -0.44 1.56 -0.64 2.36 c-0.2 0.72 -0.48 1.44 -0.68 2.2 c-0.2 0.64 -0.36 1.28 -0.48 1.96 c-0.04 0.24 -0.04 0.48 -0.16 0.72 c-0.2 0.44 -0.4 0.56 -0.92 0.56 c0.08 -0.08 0.08 -0.16 0 -0.24 c-0.08 -0.04 -0.12 0 -0.16 0.04 c-0.04 0.12 0.08 0.16 0.12 0.2 l0.04 0 c0.04 0.12 -0.08 0.12 -0.12 0.12 c-0.24 -0.08 -0.48 -0.08 -0.72 -0.2 c-0.16 -0.12 -0.4 -0.16 -0.64 -0.12 c-0.08 0 -0.16 0 -0.2 -0.04 c-0.08 -0.04 -0.12 -0.04 -0.16 0.04 c-0.04 0.04 -0.16 0.04 -0.24 -0.04 c-0.08 -0.12 -0.2 -0.12 -0.24 0.04 c-0.08 0.08 -0.16 0.16 -0.24 0.2 c-0.04 0.04 -0.12 0.04 -0.12 0.04 c-0.12 -0.16 -0.2 0 -0.28 0.04 c-0.24 0.08 -0.44 0.04 -0.64 -0.04 c-0.36 -0.2 -0.72 -0.32 -1.04 -0.56 c-0.04 -0.04 -0.04 -0.08 -0.08 -0.16 s-0.08 -0.12 0.08 -0.12 c0.16 0.04 0.32 0.04 0.48 -0.04 c0.2 -0.12 0.24 -0.16 0.16 -0.36 c-0.12 -0.16 -0.2 -0.4 -0.32 -0.56 c-0.04 -0.04 -0.08 -0.12 -0.08 -0.2 c-0.04 -0.28 -0.16 -0.48 -0.28 -0.76 c-0.12 -0.24 -0.24 -0.48 -0.28 -0.72 c-0.08 -0.32 -0.16 -0.64 -0.28 -0.96 c-0.08 -0.28 -0.2 -0.6 -0.36 -0.88 c-0.16 -0.32 -0.24 -0.68 -0.4 -1.04 c-0.12 -0.36 -0.2 -0.68 -0.32 -1.04 c-0.04 -0.2 -0.2 -0.4 -0.28 -0.6 c-0.12 -0.44 -0.2 -0.88 -0.32 -1.32 c-0.04 -0.28 -0.16 -0.52 -0.24 -0.8 c-0.2 -0.52 -0.36 -1.08 -0.44 -1.6 c-0.08 -0.28 -0.2 -0.52 -0.32 -0.76 c-0.16 -0.36 -0.28 -0.68 -0.36 -1.04 c-0.04 -0.12 -0.12 -0.2 -0.16 -0.32 c0 -0.2 -0.12 -0.36 -0.12 -0.56 c-0.04 -0.6 -0.16 -1.2 -0.4 -1.76 c-0.2 -0.44 -0.44 -0.88 -0.52 -1.36 c-0.04 -0.16 -0.12 -0.28 -0.08 -0.44 c0 -0.08 -0.04 -0.12 -0.08 -0.16 c-0.08 -0.04 -0.12 -0.12 -0.08 -0.2 c0.04 -0.2 -0.12 -0.24 -0.24 -0.32 c-0.04 -0.04 -0.08 -0.04 -0.12 0 l-0.04 0.04 c0 0.08 0.08 0 0.08 0.04 c0.12 0.04 0.16 0.2 0.12 0.28 c-0.12 0.28 0 0.56 0 0.8 c0 0.44 0 0.88 -0.04 1.32 s-0.08 0.92 -0.08 1.36 c0 0.16 -0.08 0.28 -0.2 0.36 c-0.04 0.04 -0.08 0.08 -0.04 0.16 c0.04 0 0.08 -0.08 0.08 -0.08 c0.12 -0.08 0.12 0.04 0.12 0.08 c0 0.32 0.04 0.64 0 0.92 c-0.08 0.24 -0.08 0.44 -0.08 0.68 s-0.08 0.48 -0.12 0.76 c-0.04 0.24 -0.08 0.48 -0.2 0.72 c-0.04 0.04 -0.04 0.08 0 0.12 c0.12 0.04 0.04 0.16 0 0.2 c-0.04 0.08 -0.04 0.2 -0.04 0.24 c-0.12 0.32 0 0.6 -0.12 0.88 c-0.04 0.16 -0.28 0.32 0 0.48 c-0.08 0.16 -0.04 0.32 -0.08 0.52 c0 0.52 -0.04 1.04 -0.08 1.56 c-0.08 0.76 -0.08 1.52 -0.2 2.28 c-0.12 0.72 -0.08 1.44 -0.12 2.2 c0 0.32 0.08 0.64 0.04 0.96 c-0.04 0.04 0 0.08 -0.04 0.08 c0 0 -0.04 -0.04 -0.04 -0.08 c-0.04 -0.2 -0.04 -0.4 -0.08 -0.6 c0 -0.04 0 -0.12 -0.04 -0.12 s0 0.08 0 0.08 c-0.08 0.36 -0.04 0.68 -0.04 1.04 c0 0.08 0.04 0.12 0.12 0.12 c0.08 0.04 0.2 0.04 0.28 0.04 c0.2 0 0.28 0.16 0.28 0.32 c-0.04 0.16 0.04 0.28 0.12 0.4 c0.04 0.08 0.04 0.12 -0.04 0.16 c-0.24 0.12 -0.48 0.24 -0.76 0.32 c-0.32 0.04 -0.64 0.16 -1 0.2 c-0.52 0.08 -1.08 0.12 -1.6 0.04 c-0.04 0 -0.12 -0.04 -0.16 0 c-0.52 0.12 -1 -0.04 -1.48 -0.04 c-0.28 0 -0.52 -0.08 -0.76 -0.28 s-0.16 -0.48 0.12 -0.6 c0.08 -0.04 0.16 -0.04 0.24 -0.08 c0.28 -0.16 0.32 -0.28 0.28 -0.6 c0 -0.08 -0.04 -0.2 0.04 -0.28 c0.08 -0.04 0 -0.08 0 -0.12 c0 -0.08 -0.12 -0.2 0.08 -0.12 l0.08 0 c-0.04 -0.12 -0.04 -0.24 -0.04 -0.36 c-0.08 0.04 -0.08 0.04 -0.12 -0.04 c-0.08 -0.2 0 -0.36 0.04 -0.52 c0.12 -0.36 0.16 -0.72 0.16 -1.08 c-0.04 -0.36 0 -0.76 0.04 -1.16 c0.04 -0.24 0.04 -0.52 0.04 -0.76 c0 -0.12 0 -0.24 0.04 -0.36 c0.04 -0.08 0.08 -0.2 -0.04 -0.32 c-0.04 0 -0.04 -0.08 0 -0.12 c0.08 -0.36 0.04 -0.76 0.12 -1.12 s0.12 -0.68 0.16 -1.04 c0 -0.32 0.08 -0.68 0.12 -1 c0 -0.12 0 -0.24 0.12 -0.32 c0.04 0 0.08 -0.04 0.04 -0.04 c-0.16 -0.12 -0.08 -0.24 -0.04 -0.36 c0.04 -0.16 0.08 -0.32 0.04 -0.52 c-0.04 -0.16 0.08 -0.32 0 -0.48 c0.08 -0.04 0 -0.24 0.2 -0.24 c0 0 0.04 -0.04 0.04 -0.08 c0 0 0 -0.04 -0.04 -0.04 s-0.08 0.08 -0.12 -0.04 c-0.04 -0.16 -0.04 -0.28 -0.04 -0.4 c0.04 -0.08 0.04 -0.12 0.04 -0.16 c-0.04 -0.2 0.08 -0.36 0.04 -0.52 c-0.04 -0.12 -0.08 -0.28 -0.04 -0.4 c0.16 -0.4 0 -0.8 0.08 -1.16 c0.04 -0.2 0.04 -0.44 0.2 -0.56 c0.04 -0.04 0.04 -0.08 0 -0.08 c-0.16 -0.04 -0.12 -0.16 -0.12 -0.28 c0.04 -0.44 0.04 -0.88 0.08 -1.32 l0 -0.12 c0.16 -0.12 0.04 -0.32 0.16 -0.48 c0.04 -0.04 0.08 -0.12 -0.08 -0.16 c-0.04 0 -0.04 -0.08 -0.04 -0.16 c0.04 -0.2 0.04 -0.44 0.04 -0.64 c0.04 -0.2 0 -0.4 0 -0.6 c0 -0.08 0 -0.16 0.04 -0.24 c0.04 -0.12 0 -0.28 0.04 -0.4 c0 -0.16 -0.08 -0.32 0.04 -0.48 c0.04 -0.12 0 -0.24 -0.04 -0.36 c0 -0.12 0 -0.24 0.04 -0.36 s0.08 -0.24 0 -0.36 c-0.04 -0.08 0.04 -0.12 0.04 -0.16 c0.12 -0.12 0.24 -0.24 0.12 -0.44 c-0.04 -0.04 0 -0.16 0 -0.24 l0 0 c0.08 0 0.04 0.2 0.16 0.08 c0.04 -0.04 0.08 0.04 0.04 0.08 c-0.08 0.16 -0.04 0.28 0 0.4 c0 0.04 0 0.08 0.04 0.08 s0.08 -0.04 0.12 -0.04 c0 -0.04 0.04 -0.08 0 -0.12 l-0.04 0 c-0.08 -0.08 -0.08 -0.16 0 -0.2 c0.08 -0.12 0.12 0 0.16 0.04 c0.04 0 0.08 0.08 0.12 0 c0.04 -0.04 0.04 -0.08 0 -0.12 c-0.28 -0.04 -0.12 -0.24 -0.08 -0.32 c0.04 -0.12 0.08 -0.24 -0.12 -0.16 c0 0 -0.04 0 -0.04 -0.04 s0.04 -0.08 0.08 -0.08 c0.08 0 0.12 0 0.08 -0.08 l0 -0.04 c0.16 -0.08 0.16 -0.08 0.08 -0.16 c-0.04 -0.12 0.08 -0.12 0.12 -0.16 c0.08 -0.04 0.24 0 0.24 -0.08 s0 -0.24 -0.16 -0.28 c-0.12 -0.04 -0.2 -0.2 -0.32 -0.28 c-0.04 -0.04 -0.04 -0.08 0 -0.08 c0.04 -0.16 0.08 -0.32 0.08 -0.52 c0 -0.16 -0.08 -0.16 -0.16 -0.24 c-0.2 -0.16 -0.16 -0.4 -0.24 -0.6 c-0.04 0 0 -0.04 0 -0.04 c0.12 -0.08 0.24 -0.24 0.4 -0.28 c0.08 -0.04 0.16 -0.16 0.08 -0.24 s-0.12 -0.2 -0.28 -0.2 c-0.08 -0.04 -0.2 -0.04 -0.16 -0.12 c0 -0.12 0.12 -0.08 0.2 -0.08 c0.04 0 0.08 0.04 0.16 0.08 c0.04 0.04 0.12 0.08 0.16 0 c0.04 -0.04 0.04 -0.08 0 -0.16 c0 -0.16 -0.16 -0.32 -0.08 -0.52 c0.04 -0.04 0.04 -0.12 0.12 -0.12 s0.08 0.04 0.08 0.12 c0.04 0.04 0.04 0.04 0.08 0.04 s0.04 -0.04 0 -0.04 c0 -0.08 0 -0.12 0.08 -0.08 c0.04 0.04 0.04 0 0.08 0 c0 -0.16 0.08 -0.16 0.2 -0.08 c0.08 0.04 0.24 -0.08 0.2 -0.2 c0 -0.04 0 -0.04 0.04 -0.08 c0.32 -0.08 0.56 -0.24 0.92 -0.16 c0.28 0.04 0.56 -0.04 0.84 -0.08 c0.08 0 0.16 0 0.2 0.08 c0.04 0.04 0.08 0 0.16 0 c0.12 -0.08 0.24 -0.12 0.4 -0.08 c0.6 0.12 1.2 0.08 1.8 0.2 c0.32 0.04 0.6 0.24 0.92 0.32 c0.04 0.04 0.08 0.04 0 0.12 c-0.08 0.12 -0.04 0.24 0.08 0.32 c0.28 0.12 0.28 0.24 0.12 0.48 c-0.04 0.04 -0.08 0.08 -0.08 0.12 l0 0.08 c-0.28 -0.04 -0.28 0.32 -0.48 0.36 c-0.16 0.04 -0.12 0.12 -0.08 0.2 c0.04 0.2 0.24 0.28 0.36 0.4 c0.28 0.28 0.36 0.68 0.52 1.04 c0.12 0.36 0.24 0.76 0.4 1.12 c0.16 0.6 0.32 1.2 0.52 1.8 c0.16 0.36 0.2 0.72 0.36 1.04 c0.08 0.16 0.16 0.32 0.16 0.48 c0 0.12 0 0.16 0.08 0.28 s0.12 0.28 0.16 0.44 c0.2 0.64 0.4 1.24 0.56 1.88 c0.24 0.96 0.52 1.92 0.88 2.84 c0.28 0.72 0.52 1.4 0.72 2.08 c0.12 0.44 0.28 0.88 0.36 1.32 c0 0.04 0.04 0.08 0.04 0.08 c0.4 0.52 0.48 1.16 0.6 1.76 c0.08 0.2 0.12 0.4 0.2 0.56 c0.04 0.04 0.04 0.12 0.08 0.12 c0.08 -0.04 0.08 -0.08 0.08 -0.12 c0.32 -0.92 0.72 -1.8 1.04 -2.72 c0.16 -0.48 0.36 -0.96 0.64 -1.4 c0.04 -0.08 0.16 -0.16 0.04 -0.32 c0.16 -0.16 0.04 -0.44 0.28 -0.56 c0.04 0 0.04 -0.04 0.04 -0.04 c-0.12 -0.24 -0.04 -0.52 0.2 -0.64 c0 0 0.04 -0.04 0 -0.04 c-0.16 -0.16 0 -0.28 0.04 -0.4 c0.04 -0.16 0.08 -0.36 0.16 -0.52 s0.12 -0.36 0.12 -0.56 c0 -0.16 0.2 -0.28 0.2 -0.44 c0.04 -0.04 0.04 -0.04 0.04 -0.08 c0 -0.08 -0.16 -0.08 -0.12 -0.16 c0 0 0.12 0.04 0.08 -0.08 c0 -0.12 0.12 -0.08 0.16 -0.16 l0 -0.2 c-0.04 -0.28 0 -0.52 0.04 -0.76 c0.04 -0.08 0.04 -0.12 0.08 -0.16 l0.08 0 c0.04 0.04 0.04 0.04 0 0.08 c0 0.04 -0.04 0.08 0 0.08 c0 0 0.04 0 0.08 -0.04 c0.08 0 0.04 0 0.04 -0.04 s0 -0.12 -0.04 -0.16 c-0.24 -0.08 -0.12 -0.2 -0.08 -0.32 c0.16 -0.2 0.24 -0.48 0.4 -0.68 l0 -0.08 c-0.2 -0.16 -0.04 -0.24 0.08 -0.32 c0.04 -0.04 0.2 -0.04 0.04 -0.16 c-0.04 0 -0.04 -0.04 0 -0.04 c0.08 -0.08 0.16 -0.2 0.16 -0.32 c-0.04 -0.08 0.04 -0.04 0.08 -0.04 s0.08 0 0.08 -0.04 s0 -0.08 -0.04 -0.08 c-0.08 0 -0.04 -0.04 -0.04 -0.12 c0.08 -0.52 0.28 -1 0.44 -1.48 l0 -0.04 c0.08 -0.08 0.16 -0.16 0.12 -0.32 c-0.04 -0.12 0.08 -0.32 0.12 -0.44 s0.08 -0.24 0.16 -0.32 c0.04 0 0.04 -0.04 0.04 -0.04 c0.08 -0.44 0.36 -0.8 0.48 -1.24 c0.04 -0.16 0.16 -0.36 0.24 -0.56 c0.04 -0.08 0.08 -0.16 0.04 -0.28 s0.12 -0.24 0.2 -0.36 c0.16 -0.2 0.16 -0.2 -0.04 -0.4 c-0.04 -0.04 0 -0.36 0.08 -0.4 c0.16 -0.12 0.12 -0.24 0 -0.32 c-0.24 -0.2 -0.4 -0.52 -0.72 -0.64 c0 -0.04 -0.04 -0.08 0 -0.08 c0.12 0 0.24 -0.12 0.32 0 c0.12 0.16 0.32 0.16 0.48 0.28 c0 0.04 0.04 0 0.08 0 c0.12 -0.08 0.12 -0.24 0.28 -0.24 c0.04 0 0 -0.04 0 -0.04 c0 -0.04 0 -0.12 0.08 -0.12 c0.04 0 0.08 -0.04 0.12 0.04 c0.08 0.12 0.24 0.08 0.28 -0.08 c0.04 -0.08 0.08 -0.12 0.16 -0.16 s0.08 0.08 0.12 0.08 c0.08 0.08 0.2 0.08 0.24 -0.04 c0 -0.04 0 -0.08 0.04 -0.08 s0.04 0.04 0.04 0.08 c0 0.16 0.12 0.24 0.2 0.32 c0 0.04 0.04 0.08 0.08 0.04 s0.08 -0.08 0.04 -0.12 c-0.04 -0.08 -0.04 -0.12 0.04 -0.16 c0.08 0 0.12 -0.08 0.04 -0.12 c-0.04 0 -0.08 0 -0.08 -0.04 s0.08 -0.04 0.08 -0.04 c0.24 0.08 0.52 0.04 0.68 0.28 c0.08 0.04 0.48 0.04 0.52 0 s-0.12 -0.04 0 -0.08 c0.04 0 0.08 0 0.12 0.04 c0.08 0.08 0.12 0 0.16 -0.04 c0.12 -0.04 0.2 -0.12 0.32 -0.12 c0.04 0 0.12 -0.04 0.12 0.08 c-0.04 0.08 0.04 0.04 0.08 0 c0.04 -0.08 0.08 -0.24 0.24 -0.08 c0 0.04 0.04 0 0.04 0 c0.08 -0.12 0.16 -0.04 0.24 0 c0.04 0 0.08 0.08 0.12 0.04 c0.2 -0.2 0.44 -0.04 0.64 0 c0.28 0 0.52 0.16 0.76 0.2 c0.04 0.04 0.12 0.08 0.12 0.12 c0.12 0.24 0.36 0.32 0.6 0.44 c0.08 0.08 0.16 0.2 0.24 0.28 c0.04 0.08 0.04 0.16 -0.12 0.16 c-0.08 0 -0.12 0.08 -0.2 0.08 c-0.08 0.04 -0.08 0.12 -0.04 0.24 c0.16 0.32 0.36 0.64 0.44 1 c0.04 0.12 0.12 0.24 0.04 0.4 c-0.04 0.04 0.08 0.08 0.08 0.16 c0 0.24 0.16 0.44 0.08 0.68 c-0.08 0.2 0.08 0.32 0.08 0.48 c-0.04 0.36 0.04 0.76 0.04 1.12 c-0.04 0.2 -0.04 0.4 0.04 0.6 c0.04 0.28 0 0.6 0.04 0.88 c0.04 0.48 0 0.92 0.04 1.36 s0.08 0.88 0.04 1.32 c-0.04 0.2 0.04 0.44 0.04 0.68 c-0.04 0.32 0.08 0.64 0.08 0.92 c0 0.08 0 0.12 -0.04 0.2 c-0.04 0.04 -0.04 0.08 -0.04 0.12 c0.2 0.32 0.08 0.64 0.16 0.92 c0.04 0.2 0.04 0.4 0.04 0.64 c0 0.12 0.04 0.28 -0.04 0.44 c-0.04 0.12 0.04 0.28 0.04 0.36 c0.04 0.36 0.12 0.72 0.12 1.08 c0 0.52 0.08 1.04 0.08 1.56 c0.04 1 0.04 2.04 0.04 3.04 c-0.04 0.72 0 1.44 0.08 2.16 c0.04 0.4 0.04 0.76 0.08 1.16 c0.04 0.32 0.08 0.64 0.08 1 c0 0.44 0.16 0.88 0.16 1.32 l0 0.08 c0.28 0.36 0.04 0.72 -0.04 1.08 c-0.04 0.2 -0.2 0.32 -0.4 0.36 c-0.12 0 -0.12 0.12 -0.24 0.12 c-0.28 0.08 -0.56 0.08 -0.84 0 c-0.16 -0.08 -0.32 0.04 -0.48 0.04 c-0.28 0 -0.6 0.08 -0.88 -0.04 l-0.08 0 c-0.12 0.08 -0.28 0.12 -0.4 0.08 c-0.08 -0.04 -0.12 0.08 -0.2 0.04 c-0.2 -0.04 -0.36 0.04 -0.56 0.08 z M110.46 30.28 c0 0 0.04 -0.04 0.04 -0.08 c0 -0.08 -0.04 -0.16 -0.16 -0.16 c-0.08 0 -0.12 0.12 -0.12 0.16 c0.04 0.12 0.2 -0.12 0.24 0.08 z M110.38 29.04 c0.08 0 0.04 -0.08 0.04 -0.12 c0.04 -0.08 0.08 -0.12 0.16 -0.16 c0 -0.04 0.04 -0.04 0.04 -0.08 l-0.12 0 s-0.16 0.04 -0.24 0.12 c-0.04 0 0.08 0.04 0.08 0.12 c-0.04 0.04 0 0.12 0.04 0.12 z M111.3 23.48 c0.04 0 0 -0.04 0 -0.08 s-0.04 -0.12 -0.08 -0.16 s-0.04 -0.12 -0.08 -0.08 s-0.04 0.08 -0.04 0.12 c0 0.16 0.2 0.08 0.2 0.2 z M111.1 20.56 c0.04 -0.04 0.08 -0.04 0.08 -0.12 l-0.04 -0.04 c-0.12 0.04 -0.16 -0.04 -0.2 -0.12 l-0.04 0 c-0.04 0 -0.04 0 -0.04 0.04 c0.08 0.04 0.04 0.16 0.08 0.2 s0.12 0.04 0.16 0.04 z M111.06 20.28 c0.04 0 0.04 -0.04 0.04 -0.08 c-0.2 0 0.04 -0.2 -0.12 -0.28 c-0.04 -0.04 -0.04 -0.08 0 -0.12 s0.12 -0.08 0.08 -0.12 s-0.12 0 -0.16 0.04 c0 0.04 -0.04 0.08 -0.08 0.08 c-0.08 0 -0.08 0.04 -0.04 0.04 c0.16 0.04 0.12 0.16 0.12 0.28 c-0.04 0.12 0.08 0.12 0.16 0.16 z M114.61999999999999 21.12 c0.08 0 0.16 -0.08 0.2 -0.12 l0 -0.04 c-0.08 0 -0.2 0.08 -0.2 -0.08 c-0.04 0 -0.08 0 -0.08 0.04 c0.04 0.08 0 0.2 0.08 0.2 z M110.78 17.92 l0 0 c-0.04 -0.04 -0.08 -0.08 -0.04 -0.12 c0 -0.2 0.04 -0.4 0.12 -0.56 c0.04 -0.16 0.16 -0.32 0.08 -0.52 c0 -0.04 -0.04 -0.08 0.04 -0.08 c0.12 -0.04 0.04 -0.08 0 -0.16 c-0.04 0 -0.08 0 -0.04 -0.08 c0 -0.04 0.04 -0.04 0.12 -0.04 c0.04 0 0.04 0.04 0.04 0.08 c0.04 0.04 0.04 0.12 0.04 0.16 c0 0.12 -0.08 0.2 0.04 0.32 c0.08 0.04 0 0.12 -0.08 0.16 s-0.16 0.08 -0.04 0.2 c0.04 0.04 0.04 0.16 -0.08 0.16 c-0.16 0.04 -0.08 0.08 -0.04 0.12 c0.12 0.08 0.12 0.12 0 0.2 l0 0.04 c0.08 0.16 -0.12 0.04 -0.16 0.12 z M132.1 15.32 c0.04 0.04 0.44 -0.04 0.44 -0.08 c0.04 0 0.04 0 0.04 -0.04 l-0.04 0 c-0.12 -0.04 -0.28 -0.12 -0.44 -0.12 c-0.04 0 -0.08 0.04 -0.08 0.12 c0 0.04 0 0.08 0.08 0.12 z M148.835 40.36 c-0.16 -0.04 -0.36 0 -0.52 0 c-0.52 -0.04 -1 -0.16 -1.52 -0.16 c-0.16 0 -0.24 -0.12 -0.24 -0.28 c0.04 -0.16 0.04 -0.28 0 -0.4 c-0.04 -0.04 -0.04 -0.08 0 -0.08 c0.24 -0.04 0.28 -0.24 0.28 -0.4 c0.04 -0.48 0.12 -0.92 0.32 -1.36 c0.12 -0.32 0.16 -0.64 0.2 -0.96 c0.04 -0.36 0.2 -0.68 0.32 -1 c0.2 -0.64 0.44 -1.24 0.64 -1.84 c0.2 -0.64 0.24 -1.32 0.44 -1.96 c0.08 -0.36 0.16 -0.76 0.32 -1.08 c0.16 -0.28 0.2 -0.64 0.32 -0.92 c0.08 -0.16 0.16 -0.36 0.24 -0.52 c0.12 -0.16 0.2 -0.32 0.2 -0.52 c0.08 -0.52 0.36 -0.96 0.52 -1.44 c0.28 -0.92 0.6 -1.88 0.88 -2.8 c0.12 -0.48 0.36 -0.96 0.44 -1.48 c0.08 -0.24 0.12 -0.56 0.24 -0.76 c0.16 -0.24 0.16 -0.52 0.28 -0.76 s0.16 -0.48 0.2 -0.76 s0.16 -0.56 0.24 -0.84 c0.04 -0.08 0.08 -0.2 0.12 -0.28 c0.12 -0.2 0.08 -0.44 0.2 -0.68 c0.04 0 0.04 -0.08 0.08 -0.08 c0.16 -0.04 0.08 -0.24 0.2 -0.32 c0.04 0 0 -0.04 0 -0.04 c-0.04 -0.04 -0.12 -0.04 -0.08 -0.12 c0.04 -0.04 0.12 0 0.16 0 s0.12 0.04 0.16 -0.04 c0 -0.08 -0.08 -0.04 -0.12 -0.08 c-0.08 -0.04 -0.08 -0.28 0 -0.32 c0.2 -0.04 0.16 -0.24 0.16 -0.36 c0.04 -0.12 0.04 -0.24 0.16 -0.32 c0.04 -0.04 0.08 -0.04 0.04 -0.12 c-0.08 -0.24 -0.04 -0.44 0.16 -0.64 c0.12 -0.16 0.2 -0.36 0.2 -0.6 c0 -0.04 0 -0.12 0.04 -0.16 c0 -0.04 0.04 -0.08 0.04 -0.16 c-0.04 -0.04 -0.16 -0.16 0.04 -0.08 c0.04 0 0.12 -0.08 0.08 -0.12 c-0.08 -0.08 -0.08 -0.16 -0.12 -0.24 c-0.08 -0.2 0.04 -0.24 0.2 -0.24 s0.28 -0.08 0.36 -0.28 c0.04 -0.12 0.04 -0.2 -0.08 -0.24 c-0.24 -0.12 -0.4 -0.36 -0.6 -0.56 c-0.04 -0.04 -0.12 -0.12 0 -0.16 c0.28 -0.12 0.6 -0.24 0.96 -0.28 c0.2 0.04 0.44 0.04 0.68 0 c0.12 -0.04 0.24 -0.08 0.28 -0.24 c0 0 0 -0.04 0.04 -0.08 s0.08 -0.16 0.16 -0.12 s0 0.12 0 0.2 c-0.04 0.24 0 0.28 0.24 0.24 c0.2 -0.04 0.4 -0.12 0.64 -0.16 c0.16 -0.04 0.36 -0.12 0.48 0.04 c0 0.04 0.04 0.04 0.04 0 c0.16 -0.12 0.32 -0.08 0.48 -0.08 c0.36 0 0.72 -0.04 1.08 -0.08 c0.32 -0.04 0.64 0.12 0.96 0.12 c0.24 0 0.48 0.08 0.72 0.12 c0.08 0 0.16 0 0.24 -0.04 l0.12 0 c0.32 0.2 0.72 0.12 1 0.36 c0.12 0.04 0.12 0.08 0.04 0.16 s-0.16 0.16 -0.24 0.2 s-0.24 0.12 -0.2 0.16 c0.12 0.24 -0.04 0.48 0.08 0.64 c0.04 0.08 0.04 0.24 0.2 0.12 c0.04 -0.04 0.08 0 0.12 0.04 c0 0.04 -0.04 0.08 -0.08 0.08 c-0.04 0.04 -0.12 0.08 -0.08 0.16 s0.12 0.2 0.2 0.16 c0.2 -0.08 0.16 0.08 0.16 0.16 s0.04 0.12 0.08 0.2 c0.08 0.16 0.12 0.32 0.2 0.48 c0.24 0.68 0.44 1.4 0.68 2.08 c0.16 0.56 0.36 1.08 0.44 1.68 c0.04 0.12 0.08 0.28 0.16 0.4 c0 0.08 0.08 0.16 0.04 0.28 c-0.04 0.04 0.04 0.04 0.04 0.08 c0.08 0.12 0.16 0.2 0.12 0.36 c-0.04 0.08 0.08 0.12 0.12 0.2 c0.16 0.32 0.24 0.68 0.36 1 c0.04 0.12 0.08 0.24 0.12 0.32 c0.08 0.12 -0.04 0.2 0.08 0.32 c0.08 0.04 0.08 0.24 0.12 0.36 s0.08 0.24 0.16 0.36 c0.04 0.12 0.08 0.24 0.12 0.4 c0.16 0.44 0.32 0.92 0.44 1.36 c0.24 0.84 0.52 1.68 0.76 2.48 c0.12 0.52 0.32 1 0.48 1.48 c0.08 0.32 0.16 0.68 0.32 1.04 s0.28 0.8 0.4 1.2 s0.28 0.76 0.44 1.12 c0.2 0.56 0.36 1.12 0.48 1.64 c0.16 0.52 0.28 1 0.44 1.52 c0.08 0.4 0.16 0.8 0.28 1.24 c0.12 0.48 0.2 0.92 0.28 1.4 c0 0.16 0.16 0.2 0.28 0.24 c0.08 0.04 0.2 0.08 0.28 0.08 c0.16 0 0.16 0.08 0.16 0.2 s-0.04 0.2 -0.16 0.24 c-0.24 0.08 -0.44 0.16 -0.68 0.24 l-0.24 0.12 c-0.08 0.08 -0.12 0.08 -0.24 0.04 c-0.2 -0.08 -0.4 -0.04 -0.56 0 c-0.36 0.04 -0.68 0.08 -1.04 0.08 c-0.12 0 -0.24 -0.08 -0.4 0 c-0.04 0 -0.04 -0.04 -0.04 -0.04 c0.04 -0.12 -0.04 -0.16 -0.08 -0.16 c-0.08 0 -0.16 0.04 -0.24 0.08 c0 0 0 0.12 -0.08 0.04 c-0.04 -0.04 -0.2 -0.04 -0.12 -0.2 c0.04 -0.04 0.04 -0.12 -0.04 -0.12 c-0.08 -0.04 -0.12 0.04 -0.08 0.08 c0 0.12 -0.04 0.12 -0.08 0.08 c-0.08 -0.08 -0.16 -0.08 -0.24 0 c-0.12 0.2 -0.28 0.12 -0.4 0.08 c-0.32 -0.08 -0.64 -0.2 -0.96 -0.28 c-0.24 -0.08 -0.52 -0.4 -0.44 -0.64 c0 -0.12 -0.12 -0.2 0 -0.24 c0.08 -0.04 0.16 0.08 0.2 0.08 c0.12 -0.08 0.24 -0.08 0.36 -0.12 l0.04 -0.04 l-0.08 0 c-0.08 0.04 -0.12 0 -0.12 -0.08 s0.04 -0.08 0.12 -0.08 l0.04 -0.04 l-0.04 0 c-0.2 -0.08 -0.28 -0.2 -0.28 -0.4 c-0.04 -0.16 -0.12 -0.32 -0.16 -0.52 c-0.04 -0.12 -0.04 -0.2 0.04 -0.28 c-0.08 -0.04 -0.2 -0.08 -0.24 -0.2 c0 0 -0.04 0 -0.04 -0.04 c0.04 -0.36 -0.28 -0.68 -0.28 -1.04 c0 -0.24 -0.12 -0.44 -0.08 -0.68 c0 -0.08 -0.12 -0.12 -0.12 -0.28 c0 -0.08 -0.12 -0.2 -0.04 -0.32 c0.04 -0.08 -0.12 -0.04 -0.12 -0.12 c0 -0.2 -0.12 -0.4 -0.12 -0.6 c-0.04 -0.28 -0.2 -0.52 -0.32 -0.76 c-0.04 -0.08 -0.08 -0.2 -0.24 -0.08 c-0.04 0.04 -0.16 0 -0.28 0 c-0.44 -0.04 -0.92 0.04 -1.4 -0.04 c-0.28 0 -0.56 0 -0.84 -0.04 c-0.36 0 -0.76 0 -1.12 0.04 c-0.28 0.04 -0.56 0.04 -0.84 -0.04 c-0.12 -0.04 -0.28 -0.04 -0.4 0 c-0.16 0.08 -0.28 0 -0.44 0.04 c-0.4 0 -0.84 0.12 -1.28 0.04 c-0.16 -0.04 -0.36 -0.08 -0.56 -0.08 c-0.44 0.04 -0.84 0.08 -1.28 0.12 c-0.12 0 -0.2 0.04 -0.28 0.04 c-0.24 -0.04 -0.28 0.12 -0.32 0.28 c-0.2 0.72 -0.44 1.4 -0.68 2.08 c-0.24 0.6 -0.52 1.2 -0.68 1.8 c-0.08 0.32 -0.16 0.64 -0.2 0.92 c-0.08 0.36 -0.2 0.64 -0.36 0.96 c-0.08 0.08 -0.16 0.2 -0.12 0.32 c0 0.04 0 0.12 -0.04 0.16 c-0.32 0.32 -0.68 0.56 -1.16 0.64 c-0.12 0 -0.24 0.04 -0.36 0.08 s-0.28 0 -0.44 0 c-0.08 0 -0.12 0 -0.16 0.04 c-0.16 0.04 -0.36 0.04 -0.56 0 z M160.235 28.439999999999998 c0.04 0.08 0.08 0.08 0.08 0 c0.04 -0.12 0.08 -0.12 0.16 -0.12 c0.24 -0.08 0.48 -0.08 0.68 -0.04 c0.08 0 0.2 -0.08 0.24 0 c0.04 0.04 0.04 0.16 0.12 0.12 s-0.04 -0.08 -0.04 -0.16 c0.04 -0.04 0 -0.12 0 -0.16 c-0.08 -0.48 -0.2 -0.88 -0.36 -1.32 c-0.12 -0.36 -0.2 -0.76 -0.32 -1.16 c-0.12 -0.32 -0.16 -0.68 -0.28 -1.04 c-0.12 -0.32 -0.2 -0.64 -0.32 -0.96 c-0.16 -0.32 -0.12 -0.72 -0.24 -1.04 c-0.08 -0.2 -0.16 -0.4 -0.2 -0.56 c0 -0.08 0 -0.16 -0.04 -0.24 c-0.24 -0.28 -0.28 -0.64 -0.32 -1 c0.04 -0.16 -0.12 -0.28 -0.12 -0.44 c-0.12 -0.68 -0.36 -1.36 -0.68 -2 c-0.04 -0.08 -0.08 -0.16 -0.08 -0.24 c0 -0.04 0 -0.08 -0.04 -0.08 c-0.08 0 -0.04 0.04 -0.08 0.08 c-0.16 0.4 -0.2 0.84 -0.36 1.28 c-0.08 0.12 -0.2 0.2 -0.2 0.36 c0.04 0.04 -0.04 0.12 0 0.24 c0 0.04 0.04 0.08 0 0.12 c-0.16 0.12 -0.16 0.28 -0.16 0.48 c-0.12 0.36 -0.24 0.76 -0.4 1.12 c-0.12 0.36 -0.24 0.76 -0.32 1.12 c-0.16 0.6 -0.44 1.16 -0.6 1.76 c-0.12 0.44 -0.24 0.92 -0.4 1.36 c-0.28 0.64 -0.36 1.36 -0.64 2 c-0.08 0.2 0 0.32 0.24 0.28 c0.04 0 0.12 -0.04 0.08 0.04 c0 0.12 0.08 0.08 0.12 0.08 c0.24 -0.08 0.44 -0.12 0.64 0 c0.04 0 0.08 0.04 0.08 -0.04 c0 -0.12 0.12 -0.08 0.16 -0.04 c0.28 0.08 0.52 0 0.8 0 c0.24 -0.04 0.48 0.08 0.72 -0.04 l0.08 0.08 s0.16 0 0.2 0.08 c0.08 -0.16 0.16 -0.16 0.32 -0.12 c0.08 0.04 0.2 0 0.28 -0.04 s0.12 -0.04 0.12 0.08 c0 0.04 -0.04 0.08 0 0.08 c0.08 0.04 0.08 -0.04 0.12 -0.08 c0.08 -0.04 0.12 -0.16 0.24 0 c0.08 0.08 0.28 0.08 0.32 0.04 c0.2 -0.16 0.32 -0.04 0.4 0.12 z M188.93 39.8 c-0.32 0 -0.6 -0.08 -0.92 -0.12 c-0.16 -0.04 -0.36 -0.08 -0.52 -0.04 c-0.28 0.04 -0.36 -0.04 -0.48 -0.28 c-0.04 -0.08 -0.08 -0.2 -0.16 -0.24 c-0.28 -0.16 -0.12 -0.44 -0.2 -0.68 c0 -0.04 0 -0.16 0.12 -0.08 c0.04 0.04 0.08 0.04 0.12 0 s0 -0.08 0 -0.12 c-0.28 -0.24 -0.2 -0.56 -0.24 -0.84 c-0.04 -0.12 -0.08 -0.24 0 -0.36 l0 -0.04 c0 -0.12 -0.2 -0.16 -0.08 -0.32 c0.04 -0.08 0 -0.24 0.04 -0.36 c0 -0.08 0 -0.16 -0.08 -0.2 s-0.08 -0.08 -0.08 -0.16 c0 -0.64 -0.16 -1.28 -0.12 -1.96 c0 -0.4 0 -0.8 0.08 -1.24 c0.04 -0.24 0.04 -0.48 0.04 -0.72 c0 -0.44 0 -0.88 0.04 -1.32 c0.08 -0.44 0.08 -0.92 0 -1.36 c-0.04 -0.4 0.04 -0.84 0.04 -1.28 c0.04 -0.56 0 -1.16 0.04 -1.76 c0 -0.52 0.16 -1.08 0.08 -1.64 c-0.04 -0.64 -0.04 -1.28 -0.08 -1.92 c0 -0.48 0.04 -1 0.04 -1.48 c0.04 -0.2 0 -0.4 -0.04 -0.56 c-0.12 -0.76 -0.08 -1.52 0 -2.28 c0 -0.16 -0.08 -0.2 -0.2 -0.2 c-0.32 0 -0.64 -0.04 -1 -0.04 c-0.16 0.04 -0.36 0.04 -0.52 -0.08 c-0.04 -0.04 -0.08 -0.04 -0.08 -0.04 c-0.28 0.2 -0.68 0.28 -1.04 0.24 c-0.12 -0.04 -0.2 0.08 -0.32 0 c0.08 -0.08 0.2 -0.16 0.16 -0.28 c-0.04 -0.04 0 -0.12 -0.08 -0.12 c-0.04 0 -0.08 0.04 -0.08 0.08 c-0.04 0 -0.08 0.04 -0.04 0.08 c0.08 0.08 0.04 0.16 0.04 0.24 c-0.04 0 -0.12 0.08 -0.2 0.04 s-0.16 -0.08 -0.16 -0.16 c-0.04 -0.12 0.08 -0.08 0.12 -0.12 c0 -0.04 0.08 -0.08 0.04 -0.12 c0 0 -0.04 0.04 -0.08 0.04 c-0.08 0.04 -0.16 0.04 -0.2 0.08 c-0.08 0.08 -0.16 0.08 -0.04 0.16 c0.04 0 0.08 0.08 0.04 0.12 c-0.04 0 -0.12 0 -0.12 -0.04 c-0.12 -0.16 -0.32 -0.04 -0.44 -0.16 c-0.04 -0.04 -0.04 0 -0.04 0.04 c-0.04 0.16 -0.24 0.12 -0.28 0.08 c-0.04 -0.12 -0.08 -0.04 -0.12 0 c-0.16 0.12 -0.4 0.08 -0.52 -0.08 c-0.04 -0.08 -0.04 -0.08 -0.08 0 c0 0.08 -0.04 0.08 -0.08 0.08 c-0.08 0 -0.04 -0.04 -0.04 -0.08 l0 -0.04 c-0.08 0.2 -0.24 0 -0.32 0.08 l-0.12 0 c0 -0.08 0.08 -0.04 0.08 -0.04 c0 -0.08 -0.04 -0.08 -0.08 -0.08 c-0.08 0.04 -0.16 0.04 -0.24 0.08 c-0.16 0.12 -0.36 0.12 -0.56 0.08 c-0.04 0 -0.08 0 -0.16 0.04 c-0.28 0.2 -0.68 0.12 -0.88 -0.2 c-0.04 -0.04 -0.08 -0.08 -0.12 -0.08 c-0.24 -0.12 -0.24 -0.36 -0.28 -0.52 c0 -0.16 0.08 -0.28 0.2 -0.32 c0.12 0 0.12 -0.08 0.16 -0.16 c0.08 -0.24 0.16 -0.48 0.2 -0.72 s-0.04 -0.44 -0.16 -0.6 c-0.08 -0.12 -0.24 -0.24 -0.24 -0.4 c-0.04 -0.28 0.04 -0.36 0.32 -0.32 c0.16 0 0.24 -0.12 0.28 -0.2 c0.04 -0.12 0 -0.2 -0.08 -0.28 c-0.04 -0.08 -0.08 -0.16 0 -0.2 c0.24 -0.16 0.32 -0.44 0.4 -0.72 c0.08 -0.16 0.2 -0.32 0.32 -0.48 s0.24 -0.12 0.32 0.04 c0.08 0.2 0.08 0.4 0.16 0.6 c0.04 0.12 0.12 0.2 0.24 0.16 c0.16 -0.04 0.32 -0.08 0.48 0.04 c0.08 0.08 0.12 0.12 0 0.2 c0 0.04 -0.04 0.04 -0.04 0.04 c0 0.04 0.04 0.04 0.08 0.04 s0.12 0.04 0.16 0 c0.12 -0.08 0.12 0 0.12 0.08 c0 0.04 0 0.08 0.04 0.08 c0.08 0 0.04 -0.04 0.04 -0.08 c-0.04 -0.12 0.04 -0.16 0.16 -0.16 c0.04 0 0.12 0 0.16 -0.04 c0.08 -0.12 0.16 -0.16 0.32 -0.08 c0.04 0.04 0.12 -0.08 0.08 -0.12 c0 -0.08 0.04 -0.12 0.12 -0.08 c0.16 0.04 0.28 0 0.44 -0.08 l0.12 0 c-0.08 0.04 -0.16 0.08 -0.2 0.12 c0 0.04 0 0.08 -0.04 0.12 c0.04 0 0.08 -0.04 0.08 -0.04 l0.24 -0.12 c0.04 0 0.08 0 0.08 -0.04 c-0.04 -0.04 -0.08 -0.04 -0.12 -0.04 c0.08 -0.04 0.16 -0.04 0.2 0 c0.08 0.12 0.2 0.16 0.24 -0.04 c0 -0.04 0.04 -0.04 0.04 0 c0.12 0.04 0.24 0 0.32 0.08 c0.04 0.04 0.08 0 0.08 -0.04 l0.04 -0.04 c0.16 0.2 0.32 0.04 0.48 0.04 c0.28 0.04 0.48 0.16 0.76 0.24 c0.08 0.04 0.08 0.04 0.12 -0.04 c0.08 -0.16 0.28 -0.24 0.44 -0.16 c0.04 0 0.08 0.04 0.12 0 c0.2 -0.08 0.36 0 0.52 0.16 c0.04 0.04 0.12 0.04 0.16 -0.04 c0.16 -0.12 0.32 -0.24 0.52 -0.2 c0.12 0 0.16 -0.04 0.16 -0.12 c0.12 -0.24 0.32 -0.4 0.44 -0.64 c0.04 -0.04 0.08 -0.08 0.12 -0.04 c0.08 0.04 0.04 0.08 0.04 0.12 c-0.08 0.2 0 0.36 0 0.52 c0.04 0.12 0.12 0.12 0.2 0.12 c0.24 0 0.48 0.08 0.72 0.04 c0.16 -0.04 0.32 0 0.44 0 c0.32 0.04 0.6 0 0.92 -0.08 c0.12 -0.04 0.16 -0.08 0.2 -0.2 c0.04 -0.2 0.12 -0.4 0.2 -0.56 c0.04 -0.08 0.04 -0.16 0.16 -0.12 c0.12 0 0.24 -0.04 0.32 0.08 c0.04 0 0.04 0.04 0.04 0.04 c-0.04 0.04 -0.08 0 -0.08 0 c-0.04 0 -0.08 -0.04 -0.12 0 c0 0.04 0.04 0.04 0.04 0.08 c0.16 0.2 0.2 0.48 0.2 0.72 c0.04 0.2 0.2 0.2 0.36 0.2 c0.08 0.04 0.2 0 0.28 0.12 c0.04 0.04 0.12 0.04 0.16 0.04 c0.68 -0.2 1.36 -0.24 2.04 -0.32 c0.08 0 0.16 0 0.28 -0.04 c0.64 -0.04 1.28 0.04 1.96 0.04 l1.2 0 c0.36 0 0.76 0.04 1.12 0 c0.2 0 0.44 0.2 0.4 0.36 c0 0.16 0 0.28 0.04 0.4 c0.04 0.2 -0.04 0.36 -0.04 0.56 c-0.16 0 -0.2 0.24 -0.36 0.24 c-0.16 0.04 -0.04 0.16 -0.04 0.2 c-0.04 0.08 0.04 0.12 0.12 0.04 c0.08 -0.04 0.2 0.04 0.28 -0.04 c0 -0.04 0.08 0.04 0.08 0.08 c0 0.36 0.16 0.68 0.08 1.08 c-0.04 0.2 0 0.44 0 0.68 c0 0.2 -0.08 0.4 -0.12 0.56 c0 0.16 -0.2 0.16 -0.28 0.24 c-0.12 0.12 -0.28 0.16 -0.4 0.24 c-0.08 0.08 -0.16 0.08 -0.2 -0.04 c0 -0.04 -0.04 -0.08 -0.04 -0.16 c0 -0.16 -0.08 -0.2 -0.2 -0.16 c-0.24 0.08 -0.44 0 -0.64 0.08 l-0.04 0 c-0.04 -0.24 -0.16 -0.04 -0.24 -0.04 c-0.24 0.04 -0.48 0.12 -0.72 0.08 c-0.2 0 -0.44 0.04 -0.64 0.08 l-0.32 0 c-0.04 0 -0.08 -0.04 -0.08 -0.04 c0 -0.16 -0.08 -0.12 -0.16 -0.16 c-0.12 -0.04 -0.16 -0.04 -0.24 0.04 c-0.04 0.04 -0.12 0.04 -0.16 0.04 c-0.2 -0.04 -0.4 0.08 -0.6 0.04 s-0.32 0.12 -0.52 0.08 c-0.16 -0.04 -0.36 -0.04 -0.52 -0.04 c-0.04 0.04 -0.08 0 -0.12 -0.04 c0 -0.08 -0.04 -0.08 -0.08 0 c-0.04 0.04 -0.12 0.04 -0.12 0 c-0.08 -0.08 -0.12 -0.12 -0.2 0 c0 0.04 -0.04 0.04 -0.08 -0.04 c0 0 0 -0.04 -0.04 -0.04 c-0.2 -0.04 -0.36 0.04 -0.56 0.04 c-0.2 0.04 -0.32 0.16 -0.36 0.36 c0 0.08 -0.04 0.12 0.08 0.12 c0.12 0.04 0.04 0.16 0.04 0.24 c-0.04 0.08 -0.04 0.16 0 0.24 c0.04 0.28 0 0.56 0 0.84 c-0.08 1 -0.16 2 -0.12 3 c0.04 0.6 0 1.16 0 1.76 c-0.04 0.72 -0.04 1.44 0 2.16 c0 0.4 0 0.84 0.04 1.24 c0.04 0.72 -0.08 1.44 -0.04 2.16 c0.04 0.6 -0.04 1.24 -0.04 1.88 c0 0.44 0 0.88 -0.04 1.32 s0.04 0.88 -0.04 1.32 c-0.04 0.24 0.04 0.48 0.04 0.72 c0 0.4 0.04 0.8 0.04 1.2 c0 0.08 0.04 0.12 0.04 0.2 c0 0.4 0.08 0.76 0.08 1.12 c0.04 0.28 0.08 0.56 0 0.88 c0 0.04 0.04 0.12 0.08 0.2 c0.04 0.2 -0.08 0.36 -0.2 0.48 c-0.08 0.08 -0.12 0.16 -0.2 0.2 c-0.28 0.24 -0.28 0.24 -0.6 0 c0 0 -0.04 -0.04 -0.08 0 c-0.28 0.12 -0.76 0.16 -1.12 0.08 c-0.08 -0.04 -0.2 0 -0.32 0 z M181.45000000000002 14.079999999999998 c-0.08 0 -0.12 -0.08 -0.12 -0.16 s0.04 -0.08 0.12 -0.04 c0.08 0 0.2 0 0.28 -0.08 c0.04 0 0.08 -0.04 0.12 0 s0 0.08 -0.04 0.08 c-0.12 0.08 -0.24 0.08 -0.36 0.2 z M192.05 17.08 c0.08 -0.04 0.16 -0.08 0.24 -0.08 c0.04 -0.04 0.08 -0.04 0.08 -0.08 c0 0 -0.04 -0.04 -0.08 -0.04 c-0.12 0 -0.24 0.08 -0.36 -0.04 c-0.04 0 -0.04 0.04 -0.04 0.08 c0 0.12 0.04 0.12 0.16 0.16 z M197.77 17.24 c0.08 0 0.08 -0.04 0.12 -0.08 c0 -0.04 -0.04 -0.08 -0.08 -0.08 c-0.12 0.12 -0.24 0 -0.4 -0.04 c-0.04 -0.04 -0.08 0 -0.08 0.04 c-0.04 0.04 0 0.08 0.04 0.08 c0.12 0.08 0.28 0.04 0.4 0.08 z M197.57000000000002 14.760000000000002 c0.12 -0.04 0.16 -0.08 0.16 -0.16 c0 -0.04 0 -0.12 -0.04 -0.08 c-0.08 0.04 -0.16 0.08 -0.24 0.08 c0.04 0.08 0.08 0.12 0.12 0.16 z M226.82500000000002 41.16 c-0.16 0.04 -0.28 0 -0.36 -0.16 c-0.16 -0.28 -0.12 -0.56 -0.12 -0.84 s-0.04 -0.32 -0.32 -0.32 c-0.04 0.04 -0.08 0.04 -0.08 0.04 c-0.2 -0.16 -0.36 -0.08 -0.52 0 s-0.32 0.08 -0.48 0.12 c-0.08 0 -0.12 0 -0.12 -0.04 c-0.12 -0.12 -0.2 -0.12 -0.28 0 c0 0.04 -0.04 0.04 -0.04 0 c-0.04 -0.08 -0.12 -0.04 -0.16 -0.04 c-0.08 0.08 -0.16 0.16 -0.28 0.04 c0 -0.04 -0.04 -0.04 -0.04 0 c-0.12 0.2 -0.36 0.04 -0.52 0.08 c-0.08 0.08 -0.16 0 -0.08 -0.12 c0 -0.04 0 -0.04 -0.04 -0.04 c-0.32 0.04 -0.6 0 -0.92 -0.04 c-0.08 0 -0.12 0.04 -0.12 0.08 c-0.04 0.08 -0.04 0.08 -0.08 0.08 c-0.08 0 -0.12 -0.04 -0.12 -0.08 s0 -0.12 -0.08 -0.12 c-0.08 -0.04 -0.12 0.04 -0.16 0.08 s0 0.08 -0.08 0.08 l0 -0.08 c0 -0.04 0 -0.12 -0.08 -0.12 c-0.04 0 -0.08 0 -0.08 0.08 c-0.04 0.08 -0.04 0.08 -0.12 0.04 c-0.12 -0.08 -0.28 -0.12 -0.44 0 c-0.08 0.04 -0.2 0.08 -0.32 0.04 c-0.2 -0.08 -0.44 -0.04 -0.64 -0.16 c-0.04 -0.04 -0.12 -0.2 -0.2 -0.04 c-0.04 0.04 -0.04 -0.08 -0.04 -0.12 c0.12 -0.12 -0.12 -0.16 -0.12 -0.28 c-0.04 0.04 -0.12 0.08 -0.16 0.12 c-0.04 0.08 0.04 0.04 0.04 0.04 c0.04 0.04 0 0.08 0 0.08 c-0.04 0.04 -0.08 0.08 -0.16 0.12 c-0.04 0 -0.04 -0.08 -0.04 -0.12 c0 -0.08 -0.04 -0.04 -0.12 -0.04 c-0.12 0.04 -0.24 0.12 -0.36 0 c-0.08 -0.08 -0.12 -0.08 -0.08 0.04 c0 0.16 -0.08 0.16 -0.16 0.08 c-0.12 -0.08 -0.2 -0.04 -0.24 0.04 c-0.04 0.04 -0.08 0.08 -0.08 0 c-0.04 -0.08 -0.2 -0.04 -0.08 -0.16 c0.04 -0.04 0.12 -0.04 0.08 -0.08 s-0.16 -0.08 -0.2 -0.04 c-0.12 0.16 -0.2 0.12 -0.32 0.04 c-0.04 -0.08 -0.12 0 -0.16 0 c-0.12 0.04 0 0.08 0 0.12 s0 0.16 -0.08 0.08 c-0.08 -0.04 -0.12 -0.08 -0.16 0 c-0.08 0.04 -0.04 -0.04 -0.08 -0.08 c0 0 0 -0.08 -0.04 -0.08 s-0.12 0 -0.12 0.04 c-0.04 0.08 -0.04 0.12 -0.12 0.08 c-0.08 0 -0.12 -0.04 -0.08 -0.12 c0.04 -0.04 0.04 -0.04 0 -0.08 c-0.04 0 -0.12 0 -0.16 0.04 c-0.04 0 0.04 0.04 0.04 0.04 c0.04 0.08 0.04 0.12 -0.04 0.16 c-0.08 0 -0.16 0.08 -0.2 -0.04 c-0.04 -0.2 -0.12 -0.08 -0.16 0 c-0.04 0.04 -0.04 0.12 -0.08 0.04 c-0.16 -0.16 -0.28 0 -0.4 0.04 c0 0 -0.04 0 -0.04 0.04 c-0.08 0.16 -0.2 0.2 -0.4 0.12 c0 0 0 -0.04 -0.04 -0.04 c-0.08 -0.04 -0.2 0.2 -0.28 0.04 c-0.08 -0.2 -0.16 -0.08 -0.24 0 c-0.04 0 -0.04 0.04 -0.08 0 c-0.08 -0.04 -0.2 -0.08 -0.28 -0.04 c-0.08 0 -0.08 -0.08 -0.08 -0.12 c0.04 -0.12 -0.08 -0.2 -0.16 -0.28 c-0.04 0 -0.04 -0.04 -0.08 0 l0 0.08 c0.04 0 0.08 0.08 0.08 0.12 c0.08 0.04 0.12 0.12 0.04 0.16 c-0.08 0.08 -0.16 0.04 -0.2 -0.04 c-0.12 -0.08 -0.16 -0.08 -0.28 0 s-0.24 0 -0.36 -0.04 c-0.08 0 -0.28 0.08 -0.12 -0.16 c0 0 0 -0.04 -0.04 -0.08 c-0.04 0 -0.12 0.04 -0.12 0.08 c-0.04 0.24 -0.16 0.16 -0.24 0.04 c-0.08 -0.08 -0.08 0 -0.12 0.04 s-0.04 0.08 -0.08 0.12 c0 0.08 0 0.12 -0.08 0.08 c-0.04 0 -0.04 -0.04 -0.04 -0.08 s0.04 -0.08 0 -0.12 c-0.04 0 -0.04 0.04 -0.08 0.08 c-0.28 0.2 -0.4 0.2 -0.72 0.08 c-0.12 0 -0.12 0.08 -0.2 0.08 c-0.28 0.04 -0.52 0 -0.76 -0.04 c-0.12 -0.04 -0.24 -0.04 -0.28 0.12 l0 0 c-0.08 0.08 -0.12 0.16 -0.2 0.2 c-0.12 0.04 -0.12 -0.12 -0.2 -0.16 c-0.32 -0.16 -0.48 -0.44 -0.6 -0.76 c-0.16 -0.32 -0.24 -0.6 -0.16 -0.96 c0.04 -0.12 0 -0.28 0 -0.44 c-0.16 -0.6 -0.08 -1.2 -0.12 -1.8 c-0.04 -0.76 -0.16 -1.52 -0.24 -2.28 c-0.04 -0.44 -0.04 -0.88 -0.12 -1.36 c-0.04 -0.6 0 -1.2 -0.04 -1.8 c-0.04 -0.68 -0.04 -1.32 -0.08 -2 c-0.04 -0.64 -0.08 -1.24 -0.08 -1.84 c0.04 -0.2 0.04 -0.4 0 -0.6 s0.04 -0.4 0.04 -0.64 c0 -0.32 0 -0.68 0.08 -1 c0 -0.16 -0.04 -0.32 0 -0.48 c0.08 -0.2 -0.12 -0.44 0.08 -0.64 c0.04 -0.04 -0.08 -0.08 -0.08 -0.16 c0.04 -0.24 0.08 -0.48 0.08 -0.72 c0 -0.28 0.12 -0.52 0.08 -0.76 c0 -0.16 0.04 -0.28 0.08 -0.4 c0.04 -0.16 0 -0.32 0 -0.48 c0 -0.12 -0.08 -0.28 0 -0.44 c0.04 -0.04 0.04 -0.08 0.04 -0.08 c0.24 0.12 0.12 -0.16 0.24 -0.16 c0.08 -0.04 0 -0.12 0 -0.16 c-0.04 -0.08 -0.08 -0.16 -0.08 -0.24 c-0.08 -0.12 0 -0.28 -0.04 -0.44 s-0.08 -0.32 -0.04 -0.48 c0 -0.04 -0.12 -0.08 -0.16 -0.16 c0 -0.04 -0.04 -0.12 0 -0.12 c0.04 -0.04 0.04 0.04 0.08 0.04 c0.04 0.04 0.16 -0.12 0.16 -0.2 c-0.04 -0.08 -0.04 -0.16 0 -0.24 c0.04 -0.04 0.04 -0.08 0.04 -0.08 l0 -0.64 c0.08 -0.2 -0.08 -0.24 -0.16 -0.32 l-0.08 0 c-0.08 -0.08 -0.2 0 -0.28 -0.12 c0.12 -0.04 0.16 -0.24 0.32 -0.28 c0.04 -0.04 0.16 0 0.16 -0.08 c-0.04 -0.08 -0.12 -0.04 -0.16 -0.04 c0 0 -0.04 0 -0.04 -0.04 c0 0 0 -0.04 0.04 -0.04 c0.04 -0.04 0.12 -0.08 0.2 -0.08 c0.04 -0.04 0.12 0 0.12 -0.08 s-0.08 -0.04 -0.12 -0.08 c-0.12 -0.04 -0.24 0 -0.32 -0.04 c-0.04 0 -0.08 0 -0.08 -0.04 l0.08 0 c0.08 -0.04 0.16 -0.04 0.24 -0.08 c0.04 0 0.08 0 0.12 -0.08 c0 -0.08 -0.08 -0.04 -0.12 -0.08 c-0.04 0 -0.12 0 -0.08 -0.08 c0 -0.08 0.08 -0.04 0.12 -0.04 c0.08 0.04 0.12 0 0.16 -0.04 c0.04 -0.08 -0.08 -0.08 -0.12 -0.12 c0 0 -0.04 -0.04 -0.08 -0.04 c-0.12 -0.04 -0.2 -0.04 -0.04 -0.12 c0.08 -0.04 0.04 -0.12 -0.04 -0.16 c-0.04 0 -0.12 0 -0.12 -0.04 c0.08 -0.08 -0.04 -0.24 0.08 -0.28 c0.08 -0.04 0.08 -0.04 0.04 -0.12 l-0.04 -0.04 c0.12 -0.2 0.04 -0.28 -0.16 -0.4 l0 -0.04 c0.08 -0.12 0.12 -0.2 -0.08 -0.16 c-0.04 0 -0.08 -0.04 -0.08 -0.08 c0.04 -0.04 0.08 -0.04 0.12 -0.04 c0.12 0.04 0.2 -0.04 0.28 -0.08 s0.12 -0.12 0.08 -0.2 c-0.08 -0.12 -0.04 -0.16 0.08 -0.24 c0.08 -0.08 0.04 -0.2 0 -0.28 c0 -0.08 0 -0.08 0.08 -0.12 c0.08 0 0.2 -0.04 0.28 -0.08 s0.12 0.08 0.12 0.12 c0.04 0.08 0 0.16 0.04 0.24 c0 0.08 0.04 0.16 0.12 0.12 c0.08 0 0.12 -0.04 0.12 -0.12 c-0.04 -0.08 -0.04 -0.12 0.04 -0.16 s0.08 0.04 0.12 0.08 c0 0.04 0.04 0.08 0.12 0.04 c0.16 -0.08 0.36 -0.04 0.48 -0.2 c0.08 -0.04 0.08 0 0.12 0.04 c0.04 0.16 0.24 0.28 0.36 0.16 c0.16 -0.12 0.24 0 0.36 0.08 c0.04 0.04 0.08 0.12 0.16 0.12 c0.12 0 0.16 -0.12 0.12 -0.24 l0 -0.08 c0.04 0 0.04 0.04 0.08 0.08 c0.08 0.08 0.2 0.2 0.28 -0.04 c0 -0.04 0.08 -0.04 0.12 0 c0.12 0.08 0.2 0.08 0.28 -0.08 c0 -0.04 0 -0.04 0.04 -0.08 c0 0.04 0 0.04 0.04 0.08 c0 0.12 0.16 0.04 0.2 0.16 l0.04 -0.04 c0.04 -0.12 0.12 -0.2 0.16 -0.28 c0.04 -0.12 0.12 -0.08 0.16 -0.04 c0.12 0.08 0.16 -0.04 0.28 -0.04 c0.12 0.04 0.28 0.04 0.4 0.08 s0.2 0.04 0.24 -0.08 c0.08 -0.08 0.2 0.04 0.28 0 c0.04 -0.04 0.12 0.08 0.2 -0.04 c0 -0.04 0.04 0 0.04 0.04 c0.04 0.04 -0.04 0.16 0.04 0.12 c0.16 -0.04 0.36 0.08 0.44 -0.12 c0.04 -0.04 0.08 -0.08 0.16 -0.08 c0.4 0.04 0.8 0.08 1.2 0.08 c0.2 0 0.36 -0.08 0.6 -0.08 c0.36 0 0.76 -0.04 1.16 -0.04 c0.04 0 0.16 -0.04 0.2 0.08 c0.04 0.08 0.08 -0.08 0.16 -0.04 c0.52 0.16 1.04 -0.08 1.56 -0.04 c0.6 0.04 1.16 0.04 1.76 0.12 c0.44 0.08 0.92 0.12 1.36 0.04 c0.2 -0.04 0.4 -0.08 0.56 0.12 c0 0 0.04 0.04 0.08 0.04 c0.48 -0.04 1 0.08 1.48 0.08 c0.16 0 0.32 0.16 0.44 -0.12 c0 -0.04 0.04 0.04 0.08 0.08 c0.04 0.16 0.16 0.12 0.28 0.12 c0.12 -0.04 0.12 -0.12 0.12 -0.24 c0 -0.08 0 -0.2 0.08 -0.2 s0.04 0.16 0.08 0.24 l0 0.04 c-0.08 0.16 0.12 0.28 0.16 0.44 c0 0.12 0.04 0.24 0.08 0.36 c0.04 0.04 0.04 0.04 0 0.08 c-0.2 0.2 -0.08 0.4 0.04 0.6 c0.12 0.24 0.2 0.52 0.16 0.8 c-0.04 0.24 0.08 0.52 0.08 0.76 c-0.04 0.08 0 0.16 -0.08 0.24 s-0.08 0.2 0 0.32 c0.04 0.04 0.04 0.08 0 0.16 c-0.04 0.12 0 0.28 0.04 0.4 c0 0 0 0.04 0.04 0.04 c0.04 0.04 0.08 -0.04 0.12 0 c0.08 0.04 0 0.04 -0.04 0.04 c-0.04 0.04 -0.08 0.04 -0.12 0.08 c-0.08 0.12 -0.16 0.24 -0.12 0.4 c0.04 0.12 -0.08 0.08 -0.08 0.12 c-0.12 -0.08 -0.36 0.12 -0.44 -0.16 c-0.04 -0.08 -0.12 -0.04 -0.2 0 c-0.12 0 -0.28 0.12 -0.36 -0.12 c-0.04 -0.04 -0.08 0 -0.12 0 c-0.08 0 -0.2 0.04 -0.24 -0.08 c0 -0.04 -0.08 -0.04 -0.08 0 c-0.08 0.08 -0.2 0.04 -0.28 0 c-0.2 -0.08 -0.44 0 -0.68 0 c-0.28 0.04 -0.6 -0.08 -0.92 -0.04 c-0.04 0.04 -0.04 0 -0.08 -0.04 c0 -0.24 -0.12 -0.08 -0.2 -0.04 s-0.12 0.12 -0.24 0.12 c-0.08 -0.04 -0.16 0.04 -0.16 -0.12 c0 -0.08 -0.16 -0.08 -0.24 -0.04 c-0.04 0 -0.08 0.08 -0.08 0.04 c-0.04 -0.2 -0.24 -0.12 -0.32 -0.12 c-0.16 -0.04 -0.28 0 -0.44 -0.04 c0 -0.04 0 0.04 0 0.08 s-0.04 0.08 -0.08 0.04 c-0.16 -0.16 -0.32 0.04 -0.48 0 l-0.08 0 c-0.08 -0.28 -0.32 0.08 -0.44 -0.08 c-0.04 -0.04 -0.08 -0.04 -0.08 0 c0.04 0.24 -0.04 0.08 -0.08 0.04 c-0.08 -0.04 -0.2 0 -0.28 0.04 c-0.04 0.04 -0.08 0.12 -0.16 0 c-0.08 -0.08 -0.24 0 -0.32 0.08 c-0.12 0.04 -0.24 0.08 -0.36 0 c-0.08 -0.08 -0.12 -0.04 -0.16 0 c-0.08 0.04 -0.12 0.12 -0.16 -0.04 c-0.04 0 -0.08 -0.04 -0.12 0 c-0.04 0.08 -0.12 0.04 -0.16 0.04 c-0.04 0.04 -0.12 0.04 -0.12 0 c-0.04 -0.04 0.04 -0.08 0.04 -0.12 c0.04 -0.04 0.16 0 0.12 -0.08 c-0.04 -0.04 -0.16 -0.04 -0.2 0.04 s-0.12 0.16 -0.08 0.24 c0 0.04 0 0.12 -0.08 0.08 c-0.12 -0.12 -0.28 0 -0.4 0 c-0.16 0 -0.24 -0.04 -0.32 -0.16 c-0.04 -0.12 -0.08 -0.12 -0.12 -0.04 c-0.04 0.04 -0.08 0.12 -0.16 0.04 c-0.04 -0.04 -0.12 0.04 -0.12 0.12 c0 0.16 -0.12 0.12 -0.2 0.08 s-0.12 0 -0.2 0 c-0.16 0.04 -0.32 0 -0.48 0 s-0.36 0.04 -0.52 -0.08 l-0.04 0 c-0.12 0.08 -0.24 0.2 -0.32 -0.04 c0 -0.08 -0.12 -0.08 -0.16 -0.04 c-0.08 0.08 -0.16 0.08 -0.2 -0.04 c-0.04 -0.04 -0.08 -0.08 -0.16 -0.04 c-0.04 0.04 0.04 0.08 0.04 0.12 l0 0.08 c-0.12 -0.08 -0.2 -0.04 -0.28 0 c-0.04 -0.08 -0.16 -0.04 -0.24 -0.08 c-0.04 0 -0.12 -0.08 -0.16 0.08 c0 0.04 -0.16 0.04 -0.2 0.04 c-0.24 -0.08 -0.48 -0.04 -0.68 -0.08 c-0.16 -0.04 -0.2 0 -0.2 0.16 c0.08 0.44 0.24 0.92 0.28 1.36 c0.08 0.64 0.08 1.28 0.12 1.92 c0 0.52 0.04 1.04 0.04 1.52 s-0.04 1 -0.04 1.48 c0 0.12 0.04 0.2 0.2 0.2 c0.32 0 0.64 0 0.96 0.04 c0.28 0.08 0.52 -0.04 0.8 0.04 c0.08 0.04 0.24 0 0.32 -0.04 c0.12 -0.04 0.24 -0.08 0.24 0.12 c-0.04 0.08 0.08 0.04 0.12 0.04 c0.16 0 0.32 -0.08 0.48 -0.08 s0.28 -0.04 0.44 0.04 c0.04 0.04 0.24 0.12 0.24 -0.08 c0 -0.08 0.08 -0.04 0.16 -0.04 c0.04 -0.04 0.08 0 0.12 0.08 c0.04 0.16 0.2 0.2 0.28 0.04 c0.04 0 0.04 -0.08 0.12 -0.08 c0.04 0 0.08 0.04 0.08 -0.04 c0.04 -0.04 0 -0.04 -0.04 -0.08 c-0.04 0 -0.08 0 -0.08 -0.04 s0.04 -0.04 0.08 -0.04 l0.12 0 c0.04 0.04 0.12 0.08 0.12 0.04 c0.04 -0.08 -0.04 -0.08 -0.04 -0.08 c-0.04 -0.12 0.08 -0.12 0.12 -0.16 c0.08 -0.04 0.12 -0.04 0.16 0.04 c0.08 0.16 0.28 0.2 0.4 0.36 c0 0.04 0 0 0.04 -0.04 c0 -0.04 0 -0.08 0.04 -0.04 s0 0.12 0.08 0.12 c0.04 -0.04 0.04 -0.12 0 -0.16 c0 -0.08 0 -0.16 0.08 -0.2 c0.12 -0.04 0.08 0.08 0.12 0.12 s0.08 0.12 0.12 0.16 c0.2 0.08 0.2 0.2 0.04 0.32 c-0.08 0 -0.12 0.08 -0.08 0.16 c0 0.04 0.08 0.16 0.2 0.08 l0.04 0 c0.04 0.04 0 0.08 -0.04 0.08 c-0.24 0.08 -0.24 0.24 -0.2 0.48 c0.04 0.16 0.04 0.32 0.04 0.48 c0 0.08 0.08 0.12 0.12 0.04 c0.12 -0.2 0.24 -0.4 0.24 -0.64 c0 -0.08 0 -0.12 0.08 -0.16 l0.04 0 c0.08 0.08 0 0.12 0 0.16 c-0.04 0.24 0 0.44 0 0.68 c0 0.12 0.04 0.2 -0.12 0.28 s-0.04 0.24 -0.04 0.36 c0.08 0.2 0.12 0.4 0.12 0.6 c-0.04 0.16 0.04 0.28 0 0.4 c0 0.04 0.04 0.08 0.04 0.12 c0.32 0.08 0.16 0.28 0.16 0.44 c0 0.08 -0.04 0.16 0 0.28 c0.04 0.24 -0.08 0.44 -0.16 0.6 c0 0.08 -0.08 0.08 -0.12 0.04 c-0.28 -0.16 -0.56 -0.08 -0.84 -0.04 c-0.2 0.04 -0.4 0.08 -0.6 0.04 c-0.08 0 -0.24 0.2 -0.24 -0.08 c-0.08 0.04 -0.16 0 -0.24 0.08 c-0.08 0.04 -0.12 0.04 -0.2 0 c-0.04 0 -0.12 0 -0.12 -0.04 c0 -0.08 0.08 -0.04 0.12 -0.04 c0.12 0 0.04 -0.08 0.04 -0.12 c0.04 -0.04 0 -0.04 -0.04 -0.04 c-0.12 -0.04 -0.24 0.04 -0.24 0.16 c-0.04 0.16 -0.12 0.12 -0.2 0.12 c-0.04 0 -0.08 -0.04 -0.16 -0.04 c-0.04 0.04 -0.08 0 -0.08 -0.04 c0 -0.08 0 -0.12 0.04 -0.16 c0.04 0 0.16 0.08 0.12 -0.04 c0 -0.04 -0.12 -0.08 -0.16 -0.04 c-0.08 0.08 -0.32 -0.08 -0.32 0.16 c0 0.04 -0.08 -0.04 -0.12 -0.04 c-0.04 -0.04 -0.08 -0.16 -0.12 0 c0 0.04 -0.08 0.04 -0.12 0 s-0.04 -0.08 -0.04 -0.12 s0.12 -0.04 0.04 -0.08 s-0.12 0 -0.16 0.04 c-0.04 0.16 -0.16 0.12 -0.28 0.08 s-0.24 -0.16 -0.44 -0.04 c-0.04 0.04 -0.08 -0.08 -0.08 -0.12 c-0.04 -0.12 -0.08 -0.12 -0.16 -0.08 c-0.16 0.16 -0.32 0.04 -0.44 0 c-0.2 -0.08 -0.36 -0.08 -0.52 -0.04 c-0.12 0.04 -0.16 0.08 -0.04 0.16 c0.04 0.04 0.08 0.08 0.08 0.16 c0 0.04 0.04 0.12 -0.08 0.08 c-0.04 0 -0.12 0.04 -0.2 0.04 c-0.04 0 -0.12 0.2 -0.16 -0.04 c0 -0.04 -0.28 0.12 -0.28 0.2 c-0.08 0.36 -0.08 0.76 -0.12 1.12 c0 0.6 0 1.2 -0.04 1.8 c0 0.56 -0.08 1.12 -0.16 1.68 c0 0.24 0 0.48 -0.04 0.72 c-0.04 0.16 0.16 0.2 0.16 0.32 l0.04 0 c0.16 -0.12 0.32 -0.08 0.52 -0.04 c0.12 0.04 0.28 -0.04 0.44 -0.04 s0.32 0.04 0.52 0 c0.04 0 0.04 0.08 0.04 0.08 c0.04 0.04 0.04 0.08 0.08 0.04 c0 -0.16 0.12 -0.08 0.2 -0.12 c0.24 -0.08 0.24 -0.08 0.16 0.16 c0 0.04 -0.04 0.12 0 0.12 c0.08 0 0.08 -0.08 0.08 -0.12 c0.12 -0.24 0.12 -0.24 0.36 -0.12 c0.16 0.04 0.28 -0.04 0.4 -0.04 c0.2 0 0.36 -0.04 0.52 0.04 l0.28 0 c0.2 -0.04 0.36 -0.04 0.56 0.04 c0.08 0.04 0.24 0.12 0.36 -0.04 c0.08 -0.12 0.24 0 0.36 0 c0.2 0.04 0.4 0.04 0.6 0.08 c0.08 0.04 0.16 0 0.16 0.12 c0 0.04 0.08 0.12 0.12 0 c0 -0.04 0.04 -0.12 0.08 -0.08 c0.12 0.04 0.24 0 0.36 -0.04 c0.04 0 0.08 -0.04 0.12 0 c0 0.04 -0.04 0.08 -0.08 0.12 c0 0 -0.08 0 -0.04 0.04 c0 0.04 0.04 0.04 0.08 0.04 c0.12 -0.04 0.24 0.08 0.32 -0.08 c0.32 -0.04 0.6 -0.2 0.96 -0.08 c0.28 0.08 0.64 0 0.92 0.04 c0.08 0.04 0.2 0 0.24 0.08 c0 0.04 0.04 0.04 0.04 0.04 c0.2 -0.08 0.4 -0.08 0.56 -0.16 c0.08 -0.08 0.16 -0.04 0.2 -0.04 c0.16 0 0.12 0.04 0.08 0.12 c-0.04 0 -0.08 0.04 -0.04 0.04 c0.04 0.04 0.08 0 0.08 0 c0.08 -0.16 0.16 -0.28 0.36 -0.16 c0.16 -0.2 0.44 0.08 0.6 -0.12 l0.08 0 c0.2 0.2 0.44 0.08 0.68 0.08 c0.2 0 0.44 -0.08 0.64 0.04 c0.04 0 0.08 0 0.08 -0.04 c0.24 -0.16 0.44 -0.16 0.68 -0.08 c0.12 0.04 0.28 0.08 0.44 0.04 c0.12 -0.04 0.28 0 0.4 0.04 c0.08 0.04 0.12 0.04 0.12 0.08 s-0.04 0.08 -0.08 0.08 c-0.2 0.12 -0.08 0.28 -0.04 0.4 s0.08 0.24 0.08 0.32 c0 0.04 0 0.08 -0.04 0.08 c-0.16 0.12 -0.12 0.32 -0.28 0.44 c-0.04 0.04 -0.08 0.08 -0.04 0.08 c0.2 -0.04 0.08 0.12 0.12 0.16 c0.12 0.08 0 0.24 0.08 0.36 c0.04 0 0 0.12 -0.08 0.12 s-0.04 -0.04 -0.04 -0.08 c0 -0.08 -0.04 -0.12 -0.08 -0.12 s-0.04 0.08 0 0.12 c0 0.08 0 0.28 0.2 0.16 c0 0 0.04 0 0.04 0.04 c0 0.08 0.04 0.16 -0.04 0.2 c-0.12 0.08 -0.16 0.12 0 0.2 c0.04 0.04 0.04 0.12 0.04 0.16 c0.08 0.52 0.08 1.04 0 1.56 c-0.08 0.4 -0.12 0.8 -0.2 1.2 c-0.08 0.28 -0.2 0.48 -0.48 0.6 z M214.62500000000003 27.16 c0.08 0.08 0.16 0.12 0.16 0 c0 -0.16 0.16 0 0.2 -0.12 l0 0 c-0.2 0.04 0.04 -0.16 -0.12 -0.16 c-0.08 0 -0.16 -0.08 -0.2 0.08 c-0.04 0.08 -0.08 0.16 -0.16 0 c0 -0.08 -0.04 0 -0.04 0.04 c-0.12 0.2 0.08 0.12 0.16 0.16 z M215.50500000000002 27.16 c0.08 0 0.08 -0.04 0.12 -0.08 c0.04 -0.08 0 -0.08 -0.04 -0.12 c-0.04 0 -0.08 0 -0.08 -0.04 c0.04 -0.12 0.36 -0.28 0.48 -0.24 c0.16 0.08 0.32 -0.04 0.44 0.08 c0.12 0.04 0.12 -0.12 0.24 -0.08 c0.04 0 0.08 0 0.08 -0.04 c0 -0.08 -0.08 -0.08 -0.12 -0.08 c-0.04 -0.04 -0.16 0.04 -0.16 0.04 c-0.08 -0.12 -0.16 -0.16 -0.28 -0.16 l-0.04 0 c0 -0.04 0.04 -0.04 0.04 -0.04 c0.04 -0.04 0.12 -0.04 0.08 -0.12 c0 -0.04 -0.08 -0.04 -0.12 0 c-0.12 0 -0.2 0.16 -0.4 0.04 c-0.04 -0.04 -0.24 -0.08 -0.4 0.04 l-0.12 0 c-0.28 -0.24 -0.6 -0.2 -0.92 -0.32 c-0.04 0 -0.12 -0.04 -0.12 0.08 c0 0.08 0 0.16 0.08 0.16 c0.04 0 0.08 -0.04 0.12 -0.04 c0.08 0 0.16 -0.04 0.2 0.04 c0 0.04 0.04 0.08 0 0.12 s-0.08 -0.04 -0.16 -0.04 c-0.12 -0.04 -0.2 0.04 -0.24 0.12 s0.04 0.12 0.08 0.12 c0.2 0.04 0.4 0.04 0.56 -0.08 c0.16 -0.08 0.24 0.04 0.32 0.08 c0.12 0.08 0 0.12 0 0.2 c-0.04 0.04 -0.04 0.12 -0.08 0.16 c0 0.04 0.04 0.08 0.08 0.08 s0.04 0 0.04 -0.04 c0.04 -0.08 0 -0.16 0.08 -0.2 c0.12 0 0.04 0.16 0.12 0.2 c0 0 0.04 0.04 0.04 0.08 c0 0.08 0.04 0.08 0.08 0.08 z M226.425 36.8 c0.08 -0.04 0.04 -0.2 0.12 -0.24 c0 -0.04 -0.04 -0.08 -0.04 -0.04 c-0.08 0.08 -0.2 0.08 -0.32 0.08 c-0.04 0 -0.08 0.04 -0.04 0.08 c0.08 0.04 0.2 0.12 0.28 0.12 z M213.82500000000002 15.760000000000002 c0.08 -0.04 0.28 0 0.36 -0.12 c0 -0.04 0.2 -0.12 0 -0.16 c-0.08 0 -0.04 -0.08 0 -0.12 c0 -0.04 0.04 -0.08 0 -0.12 c-0.08 -0.08 -0.04 -0.12 0 -0.2 l0.08 -0.08 c-0.12 0 -0.04 -0.2 -0.24 -0.16 s-0.4 -0.04 -0.6 0.16 c-0.04 0.04 -0.16 0 -0.12 0.12 c0.04 0.08 0.16 0.04 0.2 0 c0.16 -0.12 0.28 0.16 0.44 0.04 c0.04 0.08 0.12 0.12 0.12 0.2 c0 0.04 -0.04 0.12 -0.08 0.16 c-0.08 0 -0.08 -0.12 -0.12 -0.16 l-0.08 0 c0 -0.04 -0.04 0 0 0 c0.08 0.12 0 0.2 -0.04 0.24 c-0.08 0.12 0.04 0.16 0.08 0.2 z"></path></g></svg>