<svg xmlns="http://www.w3.org/2000/svg"  viewBox="0 0 140 139.99828968390298">
  <defs>
    <linearGradient id="a">
      <stop stop-color="#ef4136" offset="0"/>
      <stop stop-color="#fbb040" offset="1"/>
    </linearGradient>
  </defs>
  <g transform="translate(-15.561736955622425, -15.563874850743678) scale(1.711256118063661)" class="css-nyv3in" fill="url(#a)">
    <path d="M74.554,79.674c-14.975,14.975-39.254,14.975-54.229,0s-14.975-39.254,0-54.229c13.152-13.151,33.48-14.751,48.378-4.801  l-6.052,6.052c-11.501-6.775-26.549-5.225-36.425,4.651c-11.716,11.716-11.716,30.71,0,42.425s30.71,11.716,42.425,0  c9.877-9.877,11.426-24.925,4.651-36.426l6.052-6.052C89.306,46.195,87.706,66.523,74.554,79.674z M67.94,42.712l-5.923,5.923  c1.353,5.042,0.055,10.646-3.901,14.602c-5.896,5.896-15.457,5.896-21.353,0s-5.896-15.457,0-21.353  c3.956-3.956,9.56-5.254,14.602-3.901l5.923-5.923c-8.46-4.065-18.913-2.591-25.926,4.422c-8.88,8.88-8.88,23.276,0,32.156  s23.276,8.88,32.156,0C70.532,61.625,72.004,51.172,67.94,42.712z M83.393,16.607l-0.999-7.512l-9.936,9.935l0.499,3.754  L50.435,45.307c-2.842-1.172-6.233-0.604-8.542,1.705c-3.064,3.064-3.064,8.031,0,11.095c3.064,3.064,8.031,3.064,11.095,0  c2.309-2.309,2.877-5.7,1.705-8.542l22.523-22.523l3.754,0.499l9.935-9.935L83.393,16.607z M63.23,32.427L63.23,32.427L63.23,32.427  L63.23,32.427L63.23,32.427z"/>
  </g>
</svg>
