<?xml version="1.0" standalone="no"?>
<!DOCTYPE svg PUBLIC "-//W3C//DTD SVG 20010904//EN"
 "http://www.w3.org/TR/2001/REC-SVG-20010904/DTD/svg10.dtd">
<svg version="1.0" xmlns="http://www.w3.org/2000/svg"
 width="700.000000pt" height="700.000000pt" viewBox="0 0 700.000000 700.000000"
 preserveAspectRatio="xMidYMid meet">
<metadata>
Created by potrace 1.14, written by Peter Selinger 2001-2017
</metadata>
<g transform="translate(0.000000,700.000000) scale(0.100000,-0.100000)"
fill="#000000" stroke="none">
<path d="M5847 6575 c-335 -336 -425 -431 -422 -448 1 -12 6 -45 9 -73 4 -28
9 -61 11 -74 3 -14 7 -53 11 -89 l6 -64 -962 -962 -962 -962 -62 20 c-86 29
-294 31 -381 3 -301 -95 -499 -370 -482 -670 3 -50 8 -102 11 -115 55 -232
229 -427 442 -495 82 -27 94 -28 202 -31 155 -4 266 28 391 114 236 160 345
461 266 733 l-22 77 963 962 963 963 143 -18 c79 -10 151 -20 160 -22 11 -2
159 140 433 413 229 229 417 421 418 426 2 10 -10 13 -83 22 -39 4 -91 11
-230 31 -82 11 -261 34 -284 36 -29 3 -32 9 -41 88 -3 30 -7 66 -9 80 -2 14
-7 50 -11 80 -4 30 -9 64 -11 75 -2 11 -6 43 -9 70 -13 105 -17 142 -25 190
-4 28 -6 53 -3 58 2 4 2 7 0 7 -3 0 -196 -191 -430 -425z"/>
<path d="M3258 6565 c-1 -1 -68 -6 -148 -9 -80 -4 -154 -9 -165 -11 -11 -3
-45 -7 -75 -10 -66 -6 -151 -20 -240 -40 -36 -8 -79 -16 -97 -19 -46 -9 -267
-73 -348 -102 -475 -171 -889 -435 -1239 -790 -501 -508 -811 -1136 -916
-1856 -32 -217 -35 -642 -6 -848 2 -14 7 -46 10 -70 14 -102 32 -193 63 -315
14 -55 26 -107 28 -115 17 -86 130 -379 211 -545 79 -165 264 -461 355 -570 9
-11 47 -56 84 -100 455 -545 1096 -932 1805 -1088 115 -26 168 -36 225 -42 17
-2 50 -6 75 -10 128 -17 247 -22 455 -19 127 1 246 5 265 8 19 3 58 8 85 11
76 9 237 35 244 39 4 3 26 7 49 11 66 9 334 88 447 130 171 64 439 192 517
246 14 11 28 19 31 19 13 0 328 217 347 239 3 3 30 26 60 51 381 310 721 767
922 1240 60 140 150 415 173 528 2 9 10 51 19 92 8 41 18 91 21 110 3 19 7 46
10 60 11 62 18 134 30 285 12 151 1 473 -20 620 -3 17 -7 48 -10 70 -5 36 -19
117 -29 171 -25 129 -108 416 -149 514 -5 14 -11 30 -12 35 -6 27 -117 262
-168 355 -63 116 -66 120 -119 201 l-38 57 -255 -255 c-140 -140 -255 -260
-255 -267 0 -6 6 -21 14 -31 24 -35 113 -216 144 -295 56 -140 116 -338 138
-455 4 -22 8 -42 9 -45 1 -5 15 -97 21 -140 19 -130 24 -424 11 -560 -45 -463
-197 -876 -461 -1249 -270 -383 -649 -692 -1076 -877 -107 -46 -332 -120 -425
-140 -38 -9 -79 -17 -90 -20 -235 -50 -614 -63 -840 -28 -87 13 -157 26 -220
40 -38 9 -79 18 -90 20 -45 8 -294 94 -365 125 -184 80 -445 235 -569 336
-303 248 -517 503 -685 816 -127 236 -226 529 -266 782 -6 39 -13 81 -15 95
-23 122 -23 577 0 660 2 8 7 35 10 60 108 792 647 1534 1382 1904 154 77 269
121 498 189 46 14 222 49 305 61 244 34 583 26 815 -19 106 -20 142 -29 220
-50 194 -53 488 -176 586 -246 l26 -18 261 260 262 260 -93 60 c-120 78 -420
225 -576 283 -108 40 -369 118 -441 131 -14 3 -36 7 -50 10 -177 36 -330 54
-510 61 -80 3 -150 7 -157 9 -6 2 -13 2 -15 0z"/>
<path d="M3178 5225 c-2 -2 -39 -5 -83 -9 -44 -3 -136 -17 -204 -31 -595 -121
-1096 -512 -1361 -1060 -83 -173 -135 -338 -174 -558 -18 -103 -24 -324 -12
-462 15 -177 76 -424 138 -565 119 -269 243 -453 429 -639 210 -211 487 -379
771 -470 550 -175 1130 -106 1618 194 754 463 1100 1382 839 2230 -27 87 -97
265 -104 265 -1 0 -116 -113 -254 -252 -228 -227 -252 -254 -246 -277 36 -140
44 -371 19 -523 -70 -434 -377 -818 -785 -982 -78 -32 -190 -64 -279 -81 -56
-11 -332 -15 -375 -5 -22 5 -58 11 -80 15 -159 24 -352 107 -515 223 -85 60
-213 188 -283 284 -99 134 -193 346 -222 498 -16 83 -20 138 -19 275 0 175 12
249 66 410 97 287 319 552 585 702 69 38 231 106 278 117 17 3 39 8 50 11 192
46 399 46 611 0 29 -6 40 3 270 233 131 131 245 246 252 255 12 14 9 18 -24
32 -271 113 -500 164 -766 169 -76 2 -139 2 -140 1z"/>
</g>
</svg>
